<mxfile host="Electron" modified="2025-09-09T17:45:25.753Z" agent="Mozilla/5.0 (Windows NT 10.0; Win64; x64) AppleWebKit/537.36 (KHTML, like Gecko) draw.io/23.0.2 Chrome/120.0.6099.109 Electron/28.1.0 Safari/537.36" etag="EaXShsaLMqMR_OiOFGPd" version="23.0.2" type="device" pages="7">
  <diagram id="hRLuCSEn6lj9HHEPsjTb" name="Patrones">
    <mxGraphModel dx="1434" dy="836" grid="1" gridSize="10" guides="1" tooltips="1" connect="1" arrows="1" fold="1" page="1" pageScale="1" pageWidth="827" pageHeight="1169" math="0" shadow="0">
      <root>
        <mxCell id="0" />
        <mxCell id="1" parent="0" />
        <mxCell id="AOP1cMXYbt4iZniBsqdX-1" value="Controlador" style="rounded=1;whiteSpace=wrap;html=1;fillColor=#d5e8d4;strokeColor=#82b366;" parent="1" vertex="1">
          <mxGeometry x="340" y="40" width="120" height="60" as="geometry" />
        </mxCell>
        <mxCell id="AOP1cMXYbt4iZniBsqdX-2" value="Vista" style="rounded=1;whiteSpace=wrap;html=1;fillColor=#d5e8d4;strokeColor=#82b366;" parent="1" vertex="1">
          <mxGeometry x="560" y="220" width="120" height="60" as="geometry" />
        </mxCell>
        <mxCell id="AOP1cMXYbt4iZniBsqdX-3" value="Modelo" style="rounded=1;whiteSpace=wrap;html=1;fillColor=#d5e8d4;strokeColor=#82b366;" parent="1" vertex="1">
          <mxGeometry x="120" y="220" width="120" height="60" as="geometry" />
        </mxCell>
        <mxCell id="AOP1cMXYbt4iZniBsqdX-4" value="" style="endArrow=classic;html=1;rounded=0;exitX=0.25;exitY=1;exitDx=0;exitDy=0;entryX=1;entryY=0;entryDx=0;entryDy=0;strokeWidth=3;strokeColor=#0678a0;" parent="1" source="AOP1cMXYbt4iZniBsqdX-1" target="AOP1cMXYbt4iZniBsqdX-3" edge="1">
          <mxGeometry width="50" height="50" relative="1" as="geometry">
            <mxPoint x="390" y="250" as="sourcePoint" />
            <mxPoint x="390" y="200" as="targetPoint" />
          </mxGeometry>
        </mxCell>
        <mxCell id="AOP1cMXYbt4iZniBsqdX-5" value="" style="endArrow=classic;html=1;rounded=0;exitX=0.75;exitY=1;exitDx=0;exitDy=0;entryX=0;entryY=0;entryDx=0;entryDy=0;strokeWidth=3;strokeColor=#0678a0;" parent="1" source="AOP1cMXYbt4iZniBsqdX-1" target="AOP1cMXYbt4iZniBsqdX-2" edge="1">
          <mxGeometry width="50" height="50" relative="1" as="geometry">
            <mxPoint x="380" y="110" as="sourcePoint" />
            <mxPoint x="500" y="190" as="targetPoint" />
          </mxGeometry>
        </mxCell>
        <mxCell id="AOP1cMXYbt4iZniBsqdX-6" value="" style="endArrow=classic;html=1;rounded=0;exitX=0;exitY=0.75;exitDx=0;exitDy=0;entryX=1;entryY=0.75;entryDx=0;entryDy=0;strokeWidth=3;strokeColor=#0678a0;" parent="1" source="AOP1cMXYbt4iZniBsqdX-2" target="AOP1cMXYbt4iZniBsqdX-3" edge="1">
          <mxGeometry width="50" height="50" relative="1" as="geometry">
            <mxPoint x="390" y="120" as="sourcePoint" />
            <mxPoint x="260" y="240" as="targetPoint" />
          </mxGeometry>
        </mxCell>
        <mxCell id="AOP1cMXYbt4iZniBsqdX-8" value="" style="endArrow=classic;html=1;rounded=0;exitX=1;exitY=0.25;exitDx=0;exitDy=0;entryX=0;entryY=0.25;entryDx=0;entryDy=0;dashed=1;strokeWidth=3;strokeColor=#0678a0;" parent="1" source="AOP1cMXYbt4iZniBsqdX-3" target="AOP1cMXYbt4iZniBsqdX-2" edge="1">
          <mxGeometry width="50" height="50" relative="1" as="geometry">
            <mxPoint x="440" y="110" as="sourcePoint" />
            <mxPoint x="570" y="230" as="targetPoint" />
          </mxGeometry>
        </mxCell>
        <mxCell id="AOP1cMXYbt4iZniBsqdX-9" value="" style="endArrow=classic;html=1;rounded=0;exitX=0.5;exitY=0;exitDx=0;exitDy=0;entryX=1;entryY=0.5;entryDx=0;entryDy=0;dashed=1;strokeWidth=3;strokeColor=#0678a0;" parent="1" source="AOP1cMXYbt4iZniBsqdX-2" target="AOP1cMXYbt4iZniBsqdX-1" edge="1">
          <mxGeometry width="50" height="50" relative="1" as="geometry">
            <mxPoint x="250" y="245" as="sourcePoint" />
            <mxPoint x="570" y="245" as="targetPoint" />
            <Array as="points">
              <mxPoint x="620" y="70" />
            </Array>
          </mxGeometry>
        </mxCell>
        <mxCell id="ax5B1hkyLrFkr7npIUU_-1" value="Servidor" style="sketch=0;aspect=fixed;pointerEvents=1;shadow=0;dashed=0;html=1;strokeColor=none;labelPosition=center;verticalLabelPosition=bottom;verticalAlign=top;align=center;fillColor=#00188D;shape=mxgraph.mscae.enterprise.server_generic" parent="1" vertex="1">
          <mxGeometry x="678.6" y="445" width="52.8" height="110" as="geometry" />
        </mxCell>
        <mxCell id="ax5B1hkyLrFkr7npIUU_-2" value="internet" style="sketch=0;aspect=fixed;pointerEvents=1;shadow=0;dashed=0;html=1;strokeColor=none;labelPosition=center;verticalLabelPosition=bottom;verticalAlign=top;align=center;fillColor=#00188D;shape=mxgraph.mscae.enterprise.internet_hollow" parent="1" vertex="1">
          <mxGeometry x="348.6" y="456.6" width="140" height="86.8" as="geometry" />
        </mxCell>
        <mxCell id="ax5B1hkyLrFkr7npIUU_-3" value="" style="image;sketch=0;aspect=fixed;html=1;points=[];align=center;fontSize=12;image=img/lib/mscae/Managed_Desktop.svg;" parent="1" vertex="1">
          <mxGeometry x="68.6" y="360" width="110" height="79.2" as="geometry" />
        </mxCell>
        <mxCell id="ax5B1hkyLrFkr7npIUU_-4" value="" style="image;sketch=0;aspect=fixed;html=1;points=[];align=center;fontSize=12;image=img/lib/mscae/Devices_Groups.svg;" parent="1" vertex="1">
          <mxGeometry x="88.6" y="500" width="50" height="50" as="geometry" />
        </mxCell>
        <mxCell id="ax5B1hkyLrFkr7npIUU_-5" value="Servidor" style="verticalLabelPosition=bottom;sketch=0;aspect=fixed;html=1;verticalAlign=top;strokeColor=none;align=center;outlineConnect=0;shape=mxgraph.citrix.database_server;" parent="1" vertex="1">
          <mxGeometry x="680" y="830" width="80" height="90" as="geometry" />
        </mxCell>
        <mxCell id="ax5B1hkyLrFkr7npIUU_-6" value="" style="verticalLabelPosition=bottom;sketch=0;aspect=fixed;html=1;verticalAlign=top;strokeColor=none;align=center;outlineConnect=0;shape=mxgraph.citrix.laptop_1;" parent="1" vertex="1">
          <mxGeometry x="220" y="368" width="91" height="77" as="geometry" />
        </mxCell>
        <mxCell id="ax5B1hkyLrFkr7npIUU_-7" value="" style="verticalLabelPosition=bottom;sketch=0;aspect=fixed;html=1;verticalAlign=top;strokeColor=none;align=center;outlineConnect=0;shape=mxgraph.citrix.pda;" parent="1" vertex="1">
          <mxGeometry x="240" y="504" width="30" height="61" as="geometry" />
        </mxCell>
        <mxCell id="ax5B1hkyLrFkr7npIUU_-8" value="internet" style="verticalLabelPosition=bottom;sketch=0;aspect=fixed;html=1;verticalAlign=top;strokeColor=none;align=center;outlineConnect=0;shape=mxgraph.citrix.cloud;" parent="1" vertex="1">
          <mxGeometry x="360" y="820" width="147.1" height="96" as="geometry" />
        </mxCell>
        <mxCell id="ax5B1hkyLrFkr7npIUU_-9" value="" style="fontColor=#0066CC;verticalAlign=top;verticalLabelPosition=bottom;labelPosition=center;align=center;html=1;outlineConnect=0;fillColor=#CCCCCC;strokeColor=#6881B3;gradientColor=none;gradientDirection=north;strokeWidth=2;shape=mxgraph.networks.pc;" parent="1" vertex="1">
          <mxGeometry x="100" y="700" width="100" height="70" as="geometry" />
        </mxCell>
        <mxCell id="ax5B1hkyLrFkr7npIUU_-10" value="" style="fontColor=#0066CC;verticalAlign=top;verticalLabelPosition=bottom;labelPosition=center;align=center;html=1;outlineConnect=0;fillColor=#CCCCCC;strokeColor=#6881B3;gradientColor=none;gradientDirection=north;strokeWidth=2;shape=mxgraph.networks.mobile;" parent="1" vertex="1">
          <mxGeometry x="132.5" y="970" width="35" height="70" as="geometry" />
        </mxCell>
        <mxCell id="ax5B1hkyLrFkr7npIUU_-11" value="" style="fontColor=#0066CC;verticalAlign=top;verticalLabelPosition=bottom;labelPosition=center;align=center;html=1;outlineConnect=0;fillColor=#CCCCCC;strokeColor=#6881B3;gradientColor=none;gradientDirection=north;strokeWidth=2;shape=mxgraph.networks.laptop;" parent="1" vertex="1">
          <mxGeometry x="100.00000000000003" y="847.5" width="100" height="55" as="geometry" />
        </mxCell>
        <mxCell id="ax5B1hkyLrFkr7npIUU_-12" value="" style="endArrow=none;dashed=1;html=1;dashPattern=1 3;strokeWidth=2;rounded=0;" parent="1" edge="1">
          <mxGeometry width="50" height="50" relative="1" as="geometry">
            <mxPoint x="250" y="660" as="sourcePoint" />
            <mxPoint x="60" y="660" as="targetPoint" />
          </mxGeometry>
        </mxCell>
        <mxCell id="ax5B1hkyLrFkr7npIUU_-13" value="" style="endArrow=none;dashed=1;html=1;dashPattern=1 3;strokeWidth=2;rounded=0;" parent="1" edge="1">
          <mxGeometry width="50" height="50" relative="1" as="geometry">
            <mxPoint x="250" y="1080" as="sourcePoint" />
            <mxPoint x="250" y="660" as="targetPoint" />
          </mxGeometry>
        </mxCell>
        <mxCell id="ax5B1hkyLrFkr7npIUU_-14" value="" style="endArrow=none;dashed=1;html=1;dashPattern=1 3;strokeWidth=2;rounded=0;" parent="1" edge="1">
          <mxGeometry width="50" height="50" relative="1" as="geometry">
            <mxPoint x="60" y="1080" as="sourcePoint" />
            <mxPoint x="60" y="660" as="targetPoint" />
          </mxGeometry>
        </mxCell>
        <mxCell id="ax5B1hkyLrFkr7npIUU_-15" value="" style="endArrow=none;dashed=1;html=1;dashPattern=1 3;strokeWidth=2;rounded=0;" parent="1" edge="1">
          <mxGeometry width="50" height="50" relative="1" as="geometry">
            <mxPoint x="60" y="1080" as="sourcePoint" />
            <mxPoint x="250" y="1080" as="targetPoint" />
          </mxGeometry>
        </mxCell>
        <mxCell id="ax5B1hkyLrFkr7npIUU_-16" value="" style="endArrow=classic;html=1;rounded=0;fillColor=#dae8fc;strokeColor=#6c8ebf;" parent="1" target="ax5B1hkyLrFkr7npIUU_-8" edge="1">
          <mxGeometry width="50" height="50" relative="1" as="geometry">
            <mxPoint x="250" y="720" as="sourcePoint" />
            <mxPoint x="440" y="810" as="targetPoint" />
          </mxGeometry>
        </mxCell>
        <mxCell id="ax5B1hkyLrFkr7npIUU_-26" value="Petición" style="edgeLabel;html=1;align=center;verticalAlign=middle;resizable=0;points=[];" parent="ax5B1hkyLrFkr7npIUU_-16" vertex="1" connectable="0">
          <mxGeometry x="-0.0294" y="-2" relative="1" as="geometry">
            <mxPoint x="11" as="offset" />
          </mxGeometry>
        </mxCell>
        <mxCell id="ax5B1hkyLrFkr7npIUU_-17" value="" style="endArrow=classic;html=1;rounded=0;fillColor=#dae8fc;strokeColor=#6c8ebf;" parent="1" edge="1">
          <mxGeometry width="50" height="50" relative="1" as="geometry">
            <mxPoint x="520" y="860" as="sourcePoint" />
            <mxPoint x="660" y="860" as="targetPoint" />
          </mxGeometry>
        </mxCell>
        <mxCell id="ax5B1hkyLrFkr7npIUU_-19" value="Petición" style="edgeLabel;html=1;align=center;verticalAlign=middle;resizable=0;points=[];" parent="ax5B1hkyLrFkr7npIUU_-17" vertex="1" connectable="0">
          <mxGeometry x="-0.0824" relative="1" as="geometry">
            <mxPoint as="offset" />
          </mxGeometry>
        </mxCell>
        <mxCell id="ax5B1hkyLrFkr7npIUU_-18" value="" style="endArrow=classic;html=1;rounded=0;fillColor=#d5e8d4;strokeColor=#82b366;" parent="1" edge="1">
          <mxGeometry width="50" height="50" relative="1" as="geometry">
            <mxPoint x="660" y="890" as="sourcePoint" />
            <mxPoint x="520" y="890" as="targetPoint" />
          </mxGeometry>
        </mxCell>
        <mxCell id="ax5B1hkyLrFkr7npIUU_-20" value="Respuesta" style="edgeLabel;html=1;align=center;verticalAlign=middle;resizable=0;points=[];" parent="ax5B1hkyLrFkr7npIUU_-18" vertex="1" connectable="0">
          <mxGeometry x="0.1765" relative="1" as="geometry">
            <mxPoint x="10" as="offset" />
          </mxGeometry>
        </mxCell>
        <mxCell id="ax5B1hkyLrFkr7npIUU_-21" value="" style="endArrow=classic;html=1;rounded=0;fillColor=#d5e8d4;strokeColor=#82b366;" parent="1" edge="1">
          <mxGeometry width="50" height="50" relative="1" as="geometry">
            <mxPoint x="350" y="850" as="sourcePoint" />
            <mxPoint x="250" y="770" as="targetPoint" />
          </mxGeometry>
        </mxCell>
        <mxCell id="ax5B1hkyLrFkr7npIUU_-27" value="Respuesta" style="edgeLabel;html=1;align=center;verticalAlign=middle;resizable=0;points=[];" parent="ax5B1hkyLrFkr7npIUU_-21" vertex="1" connectable="0">
          <mxGeometry x="0.1512" y="4" relative="1" as="geometry">
            <mxPoint x="10" as="offset" />
          </mxGeometry>
        </mxCell>
        <mxCell id="ax5B1hkyLrFkr7npIUU_-22" value="" style="endArrow=classic;html=1;rounded=0;fillColor=#dae8fc;strokeColor=#6c8ebf;" parent="1" edge="1">
          <mxGeometry width="50" height="50" relative="1" as="geometry">
            <mxPoint x="260" y="860" as="sourcePoint" />
            <mxPoint x="350" y="860" as="targetPoint" />
          </mxGeometry>
        </mxCell>
        <mxCell id="ax5B1hkyLrFkr7npIUU_-28" value="Petición" style="edgeLabel;html=1;align=center;verticalAlign=middle;resizable=0;points=[];" parent="ax5B1hkyLrFkr7npIUU_-22" vertex="1" connectable="0">
          <mxGeometry x="-0.2889" y="-3" relative="1" as="geometry">
            <mxPoint x="8" y="-3" as="offset" />
          </mxGeometry>
        </mxCell>
        <mxCell id="ax5B1hkyLrFkr7npIUU_-23" value="" style="endArrow=classic;html=1;rounded=0;fillColor=#d5e8d4;strokeColor=#82b366;" parent="1" edge="1">
          <mxGeometry width="50" height="50" relative="1" as="geometry">
            <mxPoint x="350" y="890" as="sourcePoint" />
            <mxPoint x="260" y="890" as="targetPoint" />
          </mxGeometry>
        </mxCell>
        <mxCell id="ax5B1hkyLrFkr7npIUU_-29" value="Respuesta" style="edgeLabel;html=1;align=center;verticalAlign=middle;resizable=0;points=[];" parent="ax5B1hkyLrFkr7npIUU_-23" vertex="1" connectable="0">
          <mxGeometry x="0.3" y="1" relative="1" as="geometry">
            <mxPoint x="20" y="-1" as="offset" />
          </mxGeometry>
        </mxCell>
        <mxCell id="ax5B1hkyLrFkr7npIUU_-24" value="" style="endArrow=classic;html=1;rounded=0;fillColor=#dae8fc;strokeColor=#6c8ebf;" parent="1" edge="1">
          <mxGeometry width="50" height="50" relative="1" as="geometry">
            <mxPoint x="260" y="970" as="sourcePoint" />
            <mxPoint x="360" y="910" as="targetPoint" />
          </mxGeometry>
        </mxCell>
        <mxCell id="ax5B1hkyLrFkr7npIUU_-30" value="Petición" style="edgeLabel;html=1;align=center;verticalAlign=middle;resizable=0;points=[];" parent="ax5B1hkyLrFkr7npIUU_-24" vertex="1" connectable="0">
          <mxGeometry x="-0.1324" y="-1" relative="1" as="geometry">
            <mxPoint as="offset" />
          </mxGeometry>
        </mxCell>
        <mxCell id="ax5B1hkyLrFkr7npIUU_-25" value="" style="endArrow=classic;html=1;rounded=0;fillColor=#d5e8d4;strokeColor=#82b366;" parent="1" edge="1">
          <mxGeometry width="50" height="50" relative="1" as="geometry">
            <mxPoint x="380" y="940" as="sourcePoint" />
            <mxPoint x="260" y="1010" as="targetPoint" />
          </mxGeometry>
        </mxCell>
        <mxCell id="ax5B1hkyLrFkr7npIUU_-31" value="Respuesta" style="edgeLabel;html=1;align=center;verticalAlign=middle;resizable=0;points=[];" parent="ax5B1hkyLrFkr7npIUU_-25" vertex="1" connectable="0">
          <mxGeometry x="0.016" y="2" relative="1" as="geometry">
            <mxPoint as="offset" />
          </mxGeometry>
        </mxCell>
        <mxCell id="ax5B1hkyLrFkr7npIUU_-32" value="&lt;b&gt;Clientes&lt;/b&gt;" style="text;html=1;align=center;verticalAlign=middle;resizable=0;points=[];autosize=1;strokeColor=none;fillColor=none;" parent="1" vertex="1">
          <mxGeometry x="120" y="630" width="70" height="30" as="geometry" />
        </mxCell>
      </root>
    </mxGraphModel>
  </diagram>
  <diagram id="2bN6n0M8ebqaRV5LlqZ-" name="Respository">
    <mxGraphModel dx="1434" dy="836" grid="1" gridSize="10" guides="1" tooltips="1" connect="1" arrows="1" fold="1" page="1" pageScale="1" pageWidth="827" pageHeight="1169" math="0" shadow="0">
      <root>
        <mxCell id="0" />
        <mxCell id="1" parent="0" />
        <mxCell id="XpKPbMbPH6_w712DHi72-1" value="Lógica de Negocio" style="rounded=1;whiteSpace=wrap;html=1;fillColor=#d5e8d4;strokeColor=#82b366;" parent="1" vertex="1">
          <mxGeometry x="340" y="40" width="120" height="60" as="geometry" />
        </mxCell>
        <mxCell id="XpKPbMbPH6_w712DHi72-3" value="Repository" style="rounded=1;whiteSpace=wrap;html=1;fillColor=#dae8fc;strokeColor=#6c8ebf;" parent="1" vertex="1">
          <mxGeometry x="282.5" y="190" width="235" height="90" as="geometry" />
        </mxCell>
        <mxCell id="XpKPbMbPH6_w712DHi72-4" value="" style="endArrow=classic;html=1;rounded=0;exitX=0.5;exitY=1;exitDx=0;exitDy=0;entryX=0.5;entryY=0;entryDx=0;entryDy=0;strokeWidth=3;strokeColor=#d6b656;fillColor=#fff2cc;" parent="1" source="XpKPbMbPH6_w712DHi72-1" target="XpKPbMbPH6_w712DHi72-3" edge="1">
          <mxGeometry width="50" height="50" relative="1" as="geometry">
            <mxPoint x="390" y="250" as="sourcePoint" />
            <mxPoint x="390" y="200" as="targetPoint" />
          </mxGeometry>
        </mxCell>
        <mxCell id="XpKPbMbPH6_w712DHi72-9" value="Entidad" style="rounded=1;whiteSpace=wrap;html=1;fillColor=#ffe6cc;strokeColor=#d79b00;" parent="1" vertex="1">
          <mxGeometry x="440" y="220" width="70" height="35" as="geometry" />
        </mxCell>
        <mxCell id="XpKPbMbPH6_w712DHi72-11" value="" style="image;sketch=0;aspect=fixed;html=1;points=[];align=center;fontSize=12;image=img/lib/mscae/SQL_Database_generic.svg;" parent="1" vertex="1">
          <mxGeometry x="365.8" y="360" width="68.4" height="90" as="geometry" />
        </mxCell>
        <mxCell id="XpKPbMbPH6_w712DHi72-12" value="" style="endArrow=classic;html=1;rounded=0;exitX=0.5;exitY=1;exitDx=0;exitDy=0;strokeWidth=3;strokeColor=#d6b656;fillColor=#fff2cc;" parent="1" source="XpKPbMbPH6_w712DHi72-3" edge="1">
          <mxGeometry width="50" height="50" relative="1" as="geometry">
            <mxPoint x="410" y="110" as="sourcePoint" />
            <mxPoint x="400" y="360" as="targetPoint" />
          </mxGeometry>
        </mxCell>
        <mxCell id="XpKPbMbPH6_w712DHi72-14" value="Lógica de Negocio" style="rounded=1;whiteSpace=wrap;html=1;fillColor=#d5e8d4;strokeColor=#82b366;" parent="1" vertex="1">
          <mxGeometry x="70" y="585" width="120" height="60" as="geometry" />
        </mxCell>
        <mxCell id="XpKPbMbPH6_w712DHi72-15" value="Repository" style="rounded=1;whiteSpace=wrap;html=1;fillColor=#dae8fc;strokeColor=#6c8ebf;" parent="1" vertex="1">
          <mxGeometry x="282.5" y="570" width="235" height="90" as="geometry" />
        </mxCell>
        <mxCell id="XpKPbMbPH6_w712DHi72-16" value="" style="endArrow=classic;html=1;rounded=0;exitX=1;exitY=0.5;exitDx=0;exitDy=0;entryX=0;entryY=0.5;entryDx=0;entryDy=0;strokeWidth=3;strokeColor=#d6b656;fillColor=#fff2cc;" parent="1" source="XpKPbMbPH6_w712DHi72-14" target="XpKPbMbPH6_w712DHi72-15" edge="1">
          <mxGeometry width="50" height="50" relative="1" as="geometry">
            <mxPoint x="117.5" y="775" as="sourcePoint" />
            <mxPoint x="117.5" y="725" as="targetPoint" />
          </mxGeometry>
        </mxCell>
        <mxCell id="XpKPbMbPH6_w712DHi72-17" value="Entidad" style="rounded=1;whiteSpace=wrap;html=1;fillColor=#ffe6cc;strokeColor=#d79b00;" parent="1" vertex="1">
          <mxGeometry x="440" y="575" width="70" height="35" as="geometry" />
        </mxCell>
        <mxCell id="XpKPbMbPH6_w712DHi72-18" value="" style="image;sketch=0;aspect=fixed;html=1;points=[];align=center;fontSize=12;image=img/lib/mscae/SQL_Database_generic.svg;" parent="1" vertex="1">
          <mxGeometry x="620" y="570" width="68.4" height="90" as="geometry" />
        </mxCell>
        <mxCell id="XpKPbMbPH6_w712DHi72-19" value="" style="endArrow=classic;html=1;rounded=0;exitX=1;exitY=0.5;exitDx=0;exitDy=0;strokeWidth=3;strokeColor=#d6b656;fillColor=#fff2cc;" parent="1" source="XpKPbMbPH6_w712DHi72-15" edge="1">
          <mxGeometry width="50" height="50" relative="1" as="geometry">
            <mxPoint x="137.5" y="635" as="sourcePoint" />
            <mxPoint x="620" y="615" as="targetPoint" />
          </mxGeometry>
        </mxCell>
      </root>
    </mxGraphModel>
  </diagram>
  <diagram id="KHJRuL-vMEONq9DrE8l-" name="CU">
    <mxGraphModel dx="1434" dy="836" grid="1" gridSize="10" guides="1" tooltips="1" connect="1" arrows="1" fold="1" page="1" pageScale="1" pageWidth="827" pageHeight="1169" math="0" shadow="0">
      <root>
        <mxCell id="0" />
        <mxCell id="1" parent="0" />
        <mxCell id="ces5qK2ILaDg8q5M0Wm1-1" value="A01 - Usuario" style="shape=umlActor;verticalLabelPosition=bottom;verticalAlign=top;html=1;outlineConnect=0;" parent="1" vertex="1">
          <mxGeometry x="34" y="135" width="30" height="60" as="geometry" />
        </mxCell>
        <mxCell id="ces5qK2ILaDg8q5M0Wm1-2" value="A03 - Administrador" style="shape=umlActor;verticalLabelPosition=bottom;verticalAlign=top;html=1;outlineConnect=0;" parent="1" vertex="1">
          <mxGeometry x="40" y="525" width="30" height="60" as="geometry" />
        </mxCell>
        <mxCell id="ces5qK2ILaDg8q5M0Wm1-3" value="CU01 - Autenticación" style="ellipse;whiteSpace=wrap;html=1;" parent="1" vertex="1">
          <mxGeometry x="209" y="10" width="280" height="50" as="geometry" />
        </mxCell>
        <mxCell id="ces5qK2ILaDg8q5M0Wm1-4" value="CU02 -&amp;nbsp;Registro" style="ellipse;whiteSpace=wrap;html=1;" parent="1" vertex="1">
          <mxGeometry x="209" y="90" width="280" height="50" as="geometry" />
        </mxCell>
        <mxCell id="ces5qK2ILaDg8q5M0Wm1-5" value="CU04 -&amp;nbsp;Modificar Reserva" style="ellipse;whiteSpace=wrap;html=1;" parent="1" vertex="1">
          <mxGeometry x="218" y="245" width="280" height="50" as="geometry" />
        </mxCell>
        <mxCell id="ces5qK2ILaDg8q5M0Wm1-6" value="CU03 -&amp;nbsp;Crear Reserva" style="ellipse;whiteSpace=wrap;html=1;" parent="1" vertex="1">
          <mxGeometry x="209" y="165" width="280" height="50" as="geometry" />
        </mxCell>
        <mxCell id="ces5qK2ILaDg8q5M0Wm1-7" value="CU05 -&amp;nbsp;Anular Reserva" style="ellipse;whiteSpace=wrap;html=1;" parent="1" vertex="1">
          <mxGeometry x="219" y="325" width="280" height="50" as="geometry" />
        </mxCell>
        <mxCell id="ces5qK2ILaDg8q5M0Wm1-8" value="" style="endArrow=none;html=1;rounded=0;exitX=0.5;exitY=0.5;exitDx=0;exitDy=0;exitPerimeter=0;fillColor=#60a917;strokeColor=#2D7600;" parent="1" source="ces5qK2ILaDg8q5M0Wm1-1" edge="1">
          <mxGeometry width="50" height="50" relative="1" as="geometry">
            <mxPoint x="394" y="255" as="sourcePoint" />
            <mxPoint x="204" y="35" as="targetPoint" />
          </mxGeometry>
        </mxCell>
        <mxCell id="ces5qK2ILaDg8q5M0Wm1-10" value="" style="endArrow=none;html=1;rounded=0;entryX=0.5;entryY=0.5;entryDx=0;entryDy=0;entryPerimeter=0;fillColor=#60a917;strokeColor=#2D7600;" parent="1" target="ces5qK2ILaDg8q5M0Wm1-1" edge="1">
          <mxGeometry width="50" height="50" relative="1" as="geometry">
            <mxPoint x="204" y="115" as="sourcePoint" />
            <mxPoint x="444" y="205" as="targetPoint" />
          </mxGeometry>
        </mxCell>
        <mxCell id="ces5qK2ILaDg8q5M0Wm1-11" value="" style="endArrow=none;html=1;rounded=0;entryX=0.5;entryY=0.5;entryDx=0;entryDy=0;entryPerimeter=0;fillColor=#60a917;strokeColor=#2D7600;" parent="1" target="ces5qK2ILaDg8q5M0Wm1-1" edge="1">
          <mxGeometry width="50" height="50" relative="1" as="geometry">
            <mxPoint x="204" y="185" as="sourcePoint" />
            <mxPoint x="34" y="165" as="targetPoint" />
          </mxGeometry>
        </mxCell>
        <mxCell id="ces5qK2ILaDg8q5M0Wm1-12" value="" style="endArrow=none;html=1;rounded=0;entryX=0.5;entryY=0.5;entryDx=0;entryDy=0;entryPerimeter=0;fillColor=#60a917;strokeColor=#2D7600;" parent="1" target="ces5qK2ILaDg8q5M0Wm1-1" edge="1">
          <mxGeometry width="50" height="50" relative="1" as="geometry">
            <mxPoint x="224" y="265" as="sourcePoint" />
            <mxPoint x="74" y="70" as="targetPoint" />
          </mxGeometry>
        </mxCell>
        <mxCell id="ces5qK2ILaDg8q5M0Wm1-13" value="" style="endArrow=none;html=1;rounded=0;exitX=0;exitY=0.7;exitDx=0;exitDy=0;exitPerimeter=0;entryX=0.5;entryY=0.5;entryDx=0;entryDy=0;entryPerimeter=0;fillColor=#0050ef;strokeColor=#001DBC;" parent="1" source="ces5qK2ILaDg8q5M0Wm1-3" target="ces5qK2ILaDg8q5M0Wm1-2" edge="1">
          <mxGeometry width="50" height="50" relative="1" as="geometry">
            <mxPoint x="209" y="290" as="sourcePoint" />
            <mxPoint x="39" y="255" as="targetPoint" />
          </mxGeometry>
        </mxCell>
        <mxCell id="ces5qK2ILaDg8q5M0Wm1-14" value="" style="endArrow=none;html=1;rounded=0;entryX=0.5;entryY=0.5;entryDx=0;entryDy=0;entryPerimeter=0;fillColor=#0050ef;strokeColor=#001DBC;exitX=0.007;exitY=0.72;exitDx=0;exitDy=0;exitPerimeter=0;" parent="1" source="ces5qK2ILaDg8q5M0Wm1-25" target="ces5qK2ILaDg8q5M0Wm1-2" edge="1">
          <mxGeometry width="50" height="50" relative="1" as="geometry">
            <mxPoint x="214" y="425" as="sourcePoint" />
            <mxPoint x="34" y="335" as="targetPoint" />
          </mxGeometry>
        </mxCell>
        <mxCell id="ces5qK2ILaDg8q5M0Wm1-25" value="CU10 -&amp;nbsp;Visualizar Reservas" style="ellipse;whiteSpace=wrap;html=1;" parent="1" vertex="1">
          <mxGeometry x="218" y="405" width="280" height="50" as="geometry" />
        </mxCell>
        <mxCell id="ces5qK2ILaDg8q5M0Wm1-26" value="CU09 -&amp;nbsp;Logout" style="ellipse;whiteSpace=wrap;html=1;" parent="1" vertex="1">
          <mxGeometry x="224" y="485" width="280" height="50" as="geometry" />
        </mxCell>
        <mxCell id="ces5qK2ILaDg8q5M0Wm1-27" value="" style="endArrow=none;html=1;rounded=0;entryX=0.5;entryY=0.5;entryDx=0;entryDy=0;entryPerimeter=0;fillColor=#60a917;strokeColor=#2D7600;exitX=0;exitY=0.5;exitDx=0;exitDy=0;" parent="1" source="ces5qK2ILaDg8q5M0Wm1-26" target="ces5qK2ILaDg8q5M0Wm1-1" edge="1">
          <mxGeometry width="50" height="50" relative="1" as="geometry">
            <mxPoint x="214" y="505" as="sourcePoint" />
            <mxPoint x="59" y="90" as="targetPoint" />
          </mxGeometry>
        </mxCell>
        <mxCell id="ces5qK2ILaDg8q5M0Wm1-28" value="" style="endArrow=none;html=1;rounded=0;entryX=0.5;entryY=0.5;entryDx=0;entryDy=0;entryPerimeter=0;fillColor=#0050ef;strokeColor=#001DBC;exitX=0;exitY=0.5;exitDx=0;exitDy=0;" parent="1" source="ces5qK2ILaDg8q5M0Wm1-26" target="ces5qK2ILaDg8q5M0Wm1-2" edge="1">
          <mxGeometry width="50" height="50" relative="1" as="geometry">
            <mxPoint x="214" y="435" as="sourcePoint" />
            <mxPoint x="59" y="365" as="targetPoint" />
          </mxGeometry>
        </mxCell>
        <mxCell id="ces5qK2ILaDg8q5M0Wm1-29" value="CU06 -&amp;nbsp;Gestionar Usuarios" style="ellipse;whiteSpace=wrap;html=1;" parent="1" vertex="1">
          <mxGeometry x="228" y="565" width="280" height="50" as="geometry" />
        </mxCell>
        <mxCell id="ces5qK2ILaDg8q5M0Wm1-30" value="CU07 -&amp;nbsp;Gestionar Establecimientos" style="ellipse;whiteSpace=wrap;html=1;" parent="1" vertex="1">
          <mxGeometry x="224" y="645" width="280" height="50" as="geometry" />
        </mxCell>
        <mxCell id="ces5qK2ILaDg8q5M0Wm1-31" value="CU08 -&amp;nbsp;Ver Reservas Admin" style="ellipse;whiteSpace=wrap;html=1;" parent="1" vertex="1">
          <mxGeometry x="219" y="805" width="280" height="50" as="geometry" />
        </mxCell>
        <mxCell id="ces5qK2ILaDg8q5M0Wm1-32" value="CU14 -&amp;nbsp;Gestionar Perfiles" style="ellipse;whiteSpace=wrap;html=1;" parent="1" vertex="1">
          <mxGeometry x="224" y="725" width="280" height="50" as="geometry" />
        </mxCell>
        <mxCell id="ces5qK2ILaDg8q5M0Wm1-33" value="CU12 -&amp;nbsp;Gestionar Convocatoria" style="ellipse;whiteSpace=wrap;html=1;" parent="1" vertex="1">
          <mxGeometry x="609.97" y="200" width="200" height="50" as="geometry" />
        </mxCell>
        <mxCell id="ces5qK2ILaDg8q5M0Wm1-34" value="" style="endArrow=classic;html=1;rounded=0;dashed=1;entryX=0.214;entryY=0;entryDx=0;entryDy=0;entryPerimeter=0;exitX=0.968;exitY=0.3;exitDx=0;exitDy=0;exitPerimeter=0;" parent="1" source="ces5qK2ILaDg8q5M0Wm1-6" target="ces5qK2ILaDg8q5M0Wm1-33" edge="1">
          <mxGeometry width="50" height="50" relative="1" as="geometry">
            <mxPoint x="494" y="205" as="sourcePoint" />
            <mxPoint x="614" y="315" as="targetPoint" />
          </mxGeometry>
        </mxCell>
        <mxCell id="ces5qK2ILaDg8q5M0Wm1-35" value="&amp;lt;&amp;lt;extend&amp;gt;&amp;gt;" style="edgeLabel;html=1;align=center;verticalAlign=middle;resizable=0;points=[];" parent="ces5qK2ILaDg8q5M0Wm1-34" vertex="1" connectable="0">
          <mxGeometry x="0.6881" y="1" relative="1" as="geometry">
            <mxPoint x="-58" y="-6" as="offset" />
          </mxGeometry>
        </mxCell>
        <mxCell id="ces5qK2ILaDg8q5M0Wm1-36" value="" style="endArrow=classic;html=1;rounded=0;dashed=1;entryX=0.021;entryY=0.38;entryDx=0;entryDy=0;entryPerimeter=0;exitX=0.95;exitY=0.22;exitDx=0;exitDy=0;exitPerimeter=0;" parent="1" source="ces5qK2ILaDg8q5M0Wm1-5" target="ces5qK2ILaDg8q5M0Wm1-33" edge="1">
          <mxGeometry width="50" height="50" relative="1" as="geometry">
            <mxPoint x="500" y="250" as="sourcePoint" />
            <mxPoint x="624" y="345" as="targetPoint" />
          </mxGeometry>
        </mxCell>
        <mxCell id="ces5qK2ILaDg8q5M0Wm1-37" value="&amp;lt;&amp;lt;extend&amp;gt;&amp;gt;" style="edgeLabel;html=1;align=center;verticalAlign=middle;resizable=0;points=[];" parent="ces5qK2ILaDg8q5M0Wm1-36" vertex="1" connectable="0">
          <mxGeometry x="0.5953" relative="1" as="geometry">
            <mxPoint x="-19" y="4" as="offset" />
          </mxGeometry>
        </mxCell>
        <mxCell id="ces5qK2ILaDg8q5M0Wm1-38" value="CU11 -&amp;nbsp;Buscar Usuarios" style="ellipse;whiteSpace=wrap;html=1;" parent="1" vertex="1">
          <mxGeometry x="609.97" y="60" width="200" height="50" as="geometry" />
        </mxCell>
        <mxCell id="ces5qK2ILaDg8q5M0Wm1-39" value="" style="endArrow=classic;html=1;rounded=0;dashed=1;exitX=0.5;exitY=0;exitDx=0;exitDy=0;entryX=0.5;entryY=1;entryDx=0;entryDy=0;" parent="1" source="ces5qK2ILaDg8q5M0Wm1-33" target="ces5qK2ILaDg8q5M0Wm1-38" edge="1">
          <mxGeometry width="50" height="50" relative="1" as="geometry">
            <mxPoint x="739.97" y="225" as="sourcePoint" />
            <mxPoint x="709.97" y="175" as="targetPoint" />
          </mxGeometry>
        </mxCell>
        <mxCell id="ces5qK2ILaDg8q5M0Wm1-40" value="&amp;lt;&amp;lt;include&amp;gt;&amp;gt;" style="edgeLabel;html=1;align=center;verticalAlign=middle;resizable=0;points=[];" parent="ces5qK2ILaDg8q5M0Wm1-39" vertex="1" connectable="0">
          <mxGeometry x="0.5953" relative="1" as="geometry">
            <mxPoint y="16" as="offset" />
          </mxGeometry>
        </mxCell>
        <mxCell id="ces5qK2ILaDg8q5M0Wm1-41" value="CU13 -&amp;nbsp;Enviar Notificaciones" style="ellipse;whiteSpace=wrap;html=1;" parent="1" vertex="1">
          <mxGeometry x="609.97" y="375" width="200" height="50" as="geometry" />
        </mxCell>
        <mxCell id="ces5qK2ILaDg8q5M0Wm1-42" value="" style="endArrow=classic;html=1;rounded=0;dashed=1;exitX=0.5;exitY=1;exitDx=0;exitDy=0;entryX=0.5;entryY=0;entryDx=0;entryDy=0;" parent="1" source="ces5qK2ILaDg8q5M0Wm1-33" target="ces5qK2ILaDg8q5M0Wm1-41" edge="1">
          <mxGeometry width="50" height="50" relative="1" as="geometry">
            <mxPoint x="719.97" y="225" as="sourcePoint" />
            <mxPoint x="719.97" y="155" as="targetPoint" />
          </mxGeometry>
        </mxCell>
        <mxCell id="ces5qK2ILaDg8q5M0Wm1-43" value="&amp;lt;&amp;lt;include&amp;gt;&amp;gt;" style="edgeLabel;html=1;align=center;verticalAlign=middle;resizable=0;points=[];" parent="ces5qK2ILaDg8q5M0Wm1-42" vertex="1" connectable="0">
          <mxGeometry x="0.5953" relative="1" as="geometry">
            <mxPoint y="-28" as="offset" />
          </mxGeometry>
        </mxCell>
        <mxCell id="ces5qK2ILaDg8q5M0Wm1-44" value="" style="endArrow=classic;html=1;rounded=0;dashed=1;exitX=0.971;exitY=0.7;exitDx=0;exitDy=0;entryX=0;entryY=0;entryDx=0;entryDy=0;exitPerimeter=0;" parent="1" source="ces5qK2ILaDg8q5M0Wm1-6" target="ces5qK2ILaDg8q5M0Wm1-41" edge="1">
          <mxGeometry width="50" height="50" relative="1" as="geometry">
            <mxPoint x="704" y="455" as="sourcePoint" />
            <mxPoint x="704" y="515" as="targetPoint" />
          </mxGeometry>
        </mxCell>
        <mxCell id="ces5qK2ILaDg8q5M0Wm1-45" value="&amp;lt;&amp;lt;include&amp;gt;&amp;gt;" style="edgeLabel;html=1;align=center;verticalAlign=middle;resizable=0;points=[];" parent="ces5qK2ILaDg8q5M0Wm1-44" vertex="1" connectable="0">
          <mxGeometry x="0.5953" relative="1" as="geometry">
            <mxPoint x="-10" y="-24" as="offset" />
          </mxGeometry>
        </mxCell>
        <mxCell id="ces5qK2ILaDg8q5M0Wm1-46" value="" style="endArrow=classic;html=1;rounded=0;dashed=1;exitX=0.911;exitY=0.86;exitDx=0;exitDy=0;entryX=0.035;entryY=0.26;entryDx=0;entryDy=0;exitPerimeter=0;entryPerimeter=0;" parent="1" source="ces5qK2ILaDg8q5M0Wm1-5" target="ces5qK2ILaDg8q5M0Wm1-41" edge="1">
          <mxGeometry width="50" height="50" relative="1" as="geometry">
            <mxPoint x="491" y="210" as="sourcePoint" />
            <mxPoint x="633" y="522" as="targetPoint" />
          </mxGeometry>
        </mxCell>
        <mxCell id="ces5qK2ILaDg8q5M0Wm1-47" value="&amp;lt;&amp;lt;include&amp;gt;&amp;gt;" style="edgeLabel;html=1;align=center;verticalAlign=middle;resizable=0;points=[];" parent="ces5qK2ILaDg8q5M0Wm1-46" vertex="1" connectable="0">
          <mxGeometry x="0.5953" relative="1" as="geometry">
            <mxPoint x="-11" y="-16" as="offset" />
          </mxGeometry>
        </mxCell>
        <mxCell id="ces5qK2ILaDg8q5M0Wm1-48" value="" style="endArrow=classic;html=1;rounded=0;dashed=1;exitX=0.9;exitY=0.86;exitDx=0;exitDy=0;entryX=0.01;entryY=0.68;entryDx=0;entryDy=0;exitPerimeter=0;entryPerimeter=0;" parent="1" source="ces5qK2ILaDg8q5M0Wm1-7" target="ces5qK2ILaDg8q5M0Wm1-41" edge="1">
          <mxGeometry width="50" height="50" relative="1" as="geometry">
            <mxPoint x="501" y="220" as="sourcePoint" />
            <mxPoint x="643" y="532" as="targetPoint" />
          </mxGeometry>
        </mxCell>
        <mxCell id="ces5qK2ILaDg8q5M0Wm1-49" value="&amp;lt;&amp;lt;include&amp;gt;&amp;gt;" style="edgeLabel;html=1;align=center;verticalAlign=middle;resizable=0;points=[];" parent="ces5qK2ILaDg8q5M0Wm1-48" vertex="1" connectable="0">
          <mxGeometry x="0.5953" relative="1" as="geometry">
            <mxPoint x="-27" y="-20" as="offset" />
          </mxGeometry>
        </mxCell>
        <mxCell id="ces5qK2ILaDg8q5M0Wm1-50" value="" style="endArrow=none;html=1;rounded=0;entryX=0.5;entryY=0.5;entryDx=0;entryDy=0;entryPerimeter=0;fillColor=#60a917;strokeColor=#2D7600;exitX=0;exitY=0.5;exitDx=0;exitDy=0;" parent="1" source="ces5qK2ILaDg8q5M0Wm1-7" target="ces5qK2ILaDg8q5M0Wm1-1" edge="1">
          <mxGeometry width="50" height="50" relative="1" as="geometry">
            <mxPoint x="214" y="335" as="sourcePoint" />
            <mxPoint x="59" y="90" as="targetPoint" />
          </mxGeometry>
        </mxCell>
        <mxCell id="ces5qK2ILaDg8q5M0Wm1-51" value="" style="endArrow=none;html=1;rounded=0;entryX=0.5;entryY=0.5;entryDx=0;entryDy=0;entryPerimeter=0;fillColor=#60a917;strokeColor=#2D7600;exitX=0.021;exitY=0.24;exitDx=0;exitDy=0;exitPerimeter=0;" parent="1" source="ces5qK2ILaDg8q5M0Wm1-25" target="ces5qK2ILaDg8q5M0Wm1-1" edge="1">
          <mxGeometry width="50" height="50" relative="1" as="geometry">
            <mxPoint x="214" y="415" as="sourcePoint" />
            <mxPoint x="69" y="100" as="targetPoint" />
          </mxGeometry>
        </mxCell>
        <mxCell id="ces5qK2ILaDg8q5M0Wm1-52" value="" style="endArrow=none;html=1;rounded=0;entryX=0.5;entryY=0.5;entryDx=0;entryDy=0;entryPerimeter=0;fillColor=#0050ef;strokeColor=#001DBC;exitX=-0.004;exitY=0.38;exitDx=0;exitDy=0;exitPerimeter=0;" parent="1" source="ces5qK2ILaDg8q5M0Wm1-29" target="ces5qK2ILaDg8q5M0Wm1-2" edge="1">
          <mxGeometry width="50" height="50" relative="1" as="geometry">
            <mxPoint x="234" y="520" as="sourcePoint" />
            <mxPoint x="69" y="375" as="targetPoint" />
          </mxGeometry>
        </mxCell>
        <mxCell id="ces5qK2ILaDg8q5M0Wm1-53" value="" style="endArrow=none;html=1;rounded=0;entryX=0.5;entryY=0.5;entryDx=0;entryDy=0;entryPerimeter=0;fillColor=#0050ef;strokeColor=#001DBC;exitX=-0.011;exitY=0.38;exitDx=0;exitDy=0;exitPerimeter=0;" parent="1" source="ces5qK2ILaDg8q5M0Wm1-30" target="ces5qK2ILaDg8q5M0Wm1-2" edge="1">
          <mxGeometry width="50" height="50" relative="1" as="geometry">
            <mxPoint x="244" y="530" as="sourcePoint" />
            <mxPoint x="79" y="385" as="targetPoint" />
          </mxGeometry>
        </mxCell>
        <mxCell id="ces5qK2ILaDg8q5M0Wm1-54" value="" style="endArrow=none;html=1;rounded=0;entryX=0.5;entryY=0.5;entryDx=0;entryDy=0;entryPerimeter=0;fillColor=#0050ef;strokeColor=#001DBC;exitX=0;exitY=0.5;exitDx=0;exitDy=0;" parent="1" source="ces5qK2ILaDg8q5M0Wm1-32" target="ces5qK2ILaDg8q5M0Wm1-2" edge="1">
          <mxGeometry width="50" height="50" relative="1" as="geometry">
            <mxPoint x="254" y="540" as="sourcePoint" />
            <mxPoint x="89" y="395" as="targetPoint" />
          </mxGeometry>
        </mxCell>
        <mxCell id="ces5qK2ILaDg8q5M0Wm1-55" value="" style="endArrow=none;html=1;rounded=0;entryX=0.5;entryY=0.5;entryDx=0;entryDy=0;entryPerimeter=0;fillColor=#0050ef;strokeColor=#001DBC;exitX=0;exitY=0.5;exitDx=0;exitDy=0;" parent="1" source="ces5qK2ILaDg8q5M0Wm1-31" target="ces5qK2ILaDg8q5M0Wm1-2" edge="1">
          <mxGeometry width="50" height="50" relative="1" as="geometry">
            <mxPoint x="264" y="550" as="sourcePoint" />
            <mxPoint x="99" y="405" as="targetPoint" />
          </mxGeometry>
        </mxCell>
        <mxCell id="ces5qK2ILaDg8q5M0Wm1-56" value="A03 - Sistema de Email" style="shape=umlActor;verticalLabelPosition=bottom;verticalAlign=top;html=1;outlineConnect=0;" parent="1" vertex="1">
          <mxGeometry x="694.97" y="585" width="30" height="60" as="geometry" />
        </mxCell>
        <mxCell id="ces5qK2ILaDg8q5M0Wm1-58" value="" style="endArrow=none;html=1;rounded=0;exitX=0.5;exitY=1;exitDx=0;exitDy=0;entryX=0.5;entryY=0;entryDx=0;entryDy=0;entryPerimeter=0;endFill=0;" parent="1" source="ces5qK2ILaDg8q5M0Wm1-41" target="ces5qK2ILaDg8q5M0Wm1-56" edge="1">
          <mxGeometry width="50" height="50" relative="1" as="geometry">
            <mxPoint x="720" y="260" as="sourcePoint" />
            <mxPoint x="720" y="385" as="targetPoint" />
          </mxGeometry>
        </mxCell>
      </root>
    </mxGraphModel>
  </diagram>
  <diagram id="YrxedCv_Vy6HDX-yhDBL" name="ER">
    <mxGraphModel dx="1434" dy="836" grid="1" gridSize="10" guides="1" tooltips="1" connect="1" arrows="1" fold="1" page="1" pageScale="1" pageWidth="827" pageHeight="1169" math="0" shadow="0">
      <root>
        <mxCell id="0" />
        <mxCell id="1" parent="0" />
        <mxCell id="durJml-ASHJohpNJdJDa-1" value="Usuario" style="whiteSpace=wrap;html=1;align=center;strokeColor=#d6b656;fillColor=#fff2cc;" parent="1" vertex="1">
          <mxGeometry x="264" y="350" width="100" height="40" as="geometry" />
        </mxCell>
        <mxCell id="durJml-ASHJohpNJdJDa-2" value="nombre" style="ellipse;whiteSpace=wrap;html=1;align=center;strokeColor=#00CC00;" parent="1" vertex="1">
          <mxGeometry x="54" y="210" width="100" height="40" as="geometry" />
        </mxCell>
        <mxCell id="durJml-ASHJohpNJdJDa-3" value="id" style="ellipse;whiteSpace=wrap;html=1;align=center;fontStyle=4;strokeColor=#00CC00;" parent="1" vertex="1">
          <mxGeometry x="54" y="150" width="100" height="40" as="geometry" />
        </mxCell>
        <mxCell id="durJml-ASHJohpNJdJDa-4" value="apellidos" style="ellipse;whiteSpace=wrap;html=1;align=center;strokeColor=#00CC00;" parent="1" vertex="1">
          <mxGeometry x="54" y="270" width="100" height="40" as="geometry" />
        </mxCell>
        <mxCell id="durJml-ASHJohpNJdJDa-5" value="correo" style="ellipse;whiteSpace=wrap;html=1;align=center;strokeColor=#00CC00;" parent="1" vertex="1">
          <mxGeometry x="54" y="330" width="100" height="40" as="geometry" />
        </mxCell>
        <mxCell id="durJml-ASHJohpNJdJDa-6" value="password" style="ellipse;whiteSpace=wrap;html=1;align=center;strokeColor=#00CC00;" parent="1" vertex="1">
          <mxGeometry x="54" y="390" width="100" height="40" as="geometry" />
        </mxCell>
        <mxCell id="durJml-ASHJohpNJdJDa-7" value="telefono" style="ellipse;whiteSpace=wrap;html=1;align=center;strokeColor=#00CC00;" parent="1" vertex="1">
          <mxGeometry x="54" y="454.5" width="100" height="40" as="geometry" />
        </mxCell>
        <mxCell id="durJml-ASHJohpNJdJDa-8" value="administrdor" style="ellipse;whiteSpace=wrap;html=1;align=center;strokeColor=#00CC00;" parent="1" vertex="1">
          <mxGeometry x="54" y="510" width="100" height="40" as="geometry" />
        </mxCell>
        <mxCell id="durJml-ASHJohpNJdJDa-9" value="bloqueado" style="ellipse;whiteSpace=wrap;html=1;align=center;strokeColor=#00CC00;" parent="1" vertex="1">
          <mxGeometry x="54" y="570" width="100" height="40" as="geometry" />
        </mxCell>
        <mxCell id="durJml-ASHJohpNJdJDa-11" value="" style="endArrow=none;html=1;rounded=0;exitX=1;exitY=0.5;exitDx=0;exitDy=0;entryX=0;entryY=0.5;entryDx=0;entryDy=0;" parent="1" source="durJml-ASHJohpNJdJDa-3" target="durJml-ASHJohpNJdJDa-1" edge="1">
          <mxGeometry relative="1" as="geometry">
            <mxPoint x="304" y="450" as="sourcePoint" />
            <mxPoint x="464" y="450" as="targetPoint" />
          </mxGeometry>
        </mxCell>
        <mxCell id="durJml-ASHJohpNJdJDa-12" value="" style="endArrow=none;html=1;rounded=0;exitX=1;exitY=0.5;exitDx=0;exitDy=0;entryX=0;entryY=0.5;entryDx=0;entryDy=0;" parent="1" source="durJml-ASHJohpNJdJDa-2" target="durJml-ASHJohpNJdJDa-1" edge="1">
          <mxGeometry relative="1" as="geometry">
            <mxPoint x="164" y="220" as="sourcePoint" />
            <mxPoint x="274" y="420" as="targetPoint" />
          </mxGeometry>
        </mxCell>
        <mxCell id="durJml-ASHJohpNJdJDa-13" value="" style="endArrow=none;html=1;rounded=0;exitX=1;exitY=0.5;exitDx=0;exitDy=0;entryX=0;entryY=0.5;entryDx=0;entryDy=0;" parent="1" source="durJml-ASHJohpNJdJDa-4" target="durJml-ASHJohpNJdJDa-1" edge="1">
          <mxGeometry relative="1" as="geometry">
            <mxPoint x="174" y="230" as="sourcePoint" />
            <mxPoint x="224" y="430" as="targetPoint" />
          </mxGeometry>
        </mxCell>
        <mxCell id="durJml-ASHJohpNJdJDa-14" value="" style="endArrow=none;html=1;rounded=0;exitX=1;exitY=0.5;exitDx=0;exitDy=0;entryX=0;entryY=0.5;entryDx=0;entryDy=0;" parent="1" source="durJml-ASHJohpNJdJDa-5" target="durJml-ASHJohpNJdJDa-1" edge="1">
          <mxGeometry relative="1" as="geometry">
            <mxPoint x="184" y="240" as="sourcePoint" />
            <mxPoint x="254" y="430" as="targetPoint" />
          </mxGeometry>
        </mxCell>
        <mxCell id="durJml-ASHJohpNJdJDa-15" value="" style="endArrow=none;html=1;rounded=0;exitX=1;exitY=0.5;exitDx=0;exitDy=0;entryX=0;entryY=0.5;entryDx=0;entryDy=0;" parent="1" source="durJml-ASHJohpNJdJDa-6" target="durJml-ASHJohpNJdJDa-1" edge="1">
          <mxGeometry relative="1" as="geometry">
            <mxPoint x="194" y="250" as="sourcePoint" />
            <mxPoint x="304" y="450" as="targetPoint" />
          </mxGeometry>
        </mxCell>
        <mxCell id="durJml-ASHJohpNJdJDa-16" value="" style="endArrow=none;html=1;rounded=0;exitX=1;exitY=0.5;exitDx=0;exitDy=0;entryX=0;entryY=0.5;entryDx=0;entryDy=0;" parent="1" source="durJml-ASHJohpNJdJDa-7" target="durJml-ASHJohpNJdJDa-1" edge="1">
          <mxGeometry relative="1" as="geometry">
            <mxPoint x="204" y="260" as="sourcePoint" />
            <mxPoint x="314" y="460" as="targetPoint" />
          </mxGeometry>
        </mxCell>
        <mxCell id="durJml-ASHJohpNJdJDa-17" value="" style="endArrow=none;html=1;rounded=0;exitX=1;exitY=0.5;exitDx=0;exitDy=0;entryX=0;entryY=0.5;entryDx=0;entryDy=0;" parent="1" source="durJml-ASHJohpNJdJDa-8" target="durJml-ASHJohpNJdJDa-1" edge="1">
          <mxGeometry relative="1" as="geometry">
            <mxPoint x="214" y="270" as="sourcePoint" />
            <mxPoint x="324" y="470" as="targetPoint" />
          </mxGeometry>
        </mxCell>
        <mxCell id="durJml-ASHJohpNJdJDa-18" value="" style="endArrow=none;html=1;rounded=0;exitX=1;exitY=0.5;exitDx=0;exitDy=0;entryX=0;entryY=0.5;entryDx=0;entryDy=0;" parent="1" source="durJml-ASHJohpNJdJDa-9" target="durJml-ASHJohpNJdJDa-1" edge="1">
          <mxGeometry relative="1" as="geometry">
            <mxPoint x="224" y="280" as="sourcePoint" />
            <mxPoint x="334" y="480" as="targetPoint" />
          </mxGeometry>
        </mxCell>
        <mxCell id="durJml-ASHJohpNJdJDa-19" value="Establecimiento" style="whiteSpace=wrap;html=1;align=center;strokeColor=#d6b656;fillColor=#fff2cc;" parent="1" vertex="1">
          <mxGeometry x="504" y="190" width="100" height="40" as="geometry" />
        </mxCell>
        <mxCell id="durJml-ASHJohpNJdJDa-20" value="Reserva" style="whiteSpace=wrap;html=1;align=center;strokeColor=#d6b656;fillColor=#fff2cc;" parent="1" vertex="1">
          <mxGeometry x="514" y="494.5" width="100" height="40" as="geometry" />
        </mxCell>
        <mxCell id="durJml-ASHJohpNJdJDa-21" value="id" style="ellipse;whiteSpace=wrap;html=1;align=center;fontStyle=4;strokeColor=#00CC00;" parent="1" vertex="1">
          <mxGeometry x="684" y="590" width="100" height="40" as="geometry" />
        </mxCell>
        <mxCell id="durJml-ASHJohpNJdJDa-22" value="fechaHoraReserva" style="ellipse;whiteSpace=wrap;html=1;align=center;strokeColor=#00CC00;" parent="1" vertex="1">
          <mxGeometry x="684" y="645.5" width="116" height="40" as="geometry" />
        </mxCell>
        <mxCell id="durJml-ASHJohpNJdJDa-23" value="horaFin" style="ellipse;whiteSpace=wrap;html=1;align=center;strokeColor=#00CC00;" parent="1" vertex="1">
          <mxGeometry x="684" y="705.5" width="100" height="40" as="geometry" />
        </mxCell>
        <mxCell id="durJml-ASHJohpNJdJDa-24" value="Realiza" style="shape=rhombus;perimeter=rhombusPerimeter;whiteSpace=wrap;html=1;align=center;strokeColor=#b85450;fillColor=#f8cecc;" parent="1" vertex="1">
          <mxGeometry x="504" y="340" width="120" height="60" as="geometry" />
        </mxCell>
        <mxCell id="durJml-ASHJohpNJdJDa-25" value="" style="endArrow=none;html=1;rounded=0;entryX=0;entryY=0.5;entryDx=0;entryDy=0;exitX=1;exitY=0.5;exitDx=0;exitDy=0;" parent="1" source="durJml-ASHJohpNJdJDa-1" target="durJml-ASHJohpNJdJDa-24" edge="1">
          <mxGeometry relative="1" as="geometry">
            <mxPoint x="304" y="450" as="sourcePoint" />
            <mxPoint x="464" y="450" as="targetPoint" />
          </mxGeometry>
        </mxCell>
        <mxCell id="durJml-ASHJohpNJdJDa-33" value="(1,1)" style="edgeLabel;html=1;align=center;verticalAlign=middle;resizable=0;points=[];fontSize=13;" parent="durJml-ASHJohpNJdJDa-25" vertex="1" connectable="0">
          <mxGeometry x="0.0429" y="-1" relative="1" as="geometry">
            <mxPoint as="offset" />
          </mxGeometry>
        </mxCell>
        <mxCell id="durJml-ASHJohpNJdJDa-27" value="" style="endArrow=none;html=1;rounded=0;entryX=0.5;entryY=0;entryDx=0;entryDy=0;exitX=0.5;exitY=1;exitDx=0;exitDy=0;" parent="1" source="durJml-ASHJohpNJdJDa-24" target="durJml-ASHJohpNJdJDa-20" edge="1">
          <mxGeometry relative="1" as="geometry">
            <mxPoint x="374" y="420" as="sourcePoint" />
            <mxPoint x="514" y="420" as="targetPoint" />
          </mxGeometry>
        </mxCell>
        <mxCell id="durJml-ASHJohpNJdJDa-34" value="(0,n)" style="edgeLabel;html=1;align=center;verticalAlign=middle;resizable=0;points=[];fontSize=13;" parent="durJml-ASHJohpNJdJDa-27" vertex="1" connectable="0">
          <mxGeometry x="-0.0459" y="1" relative="1" as="geometry">
            <mxPoint as="offset" />
          </mxGeometry>
        </mxCell>
        <mxCell id="durJml-ASHJohpNJdJDa-28" value="" style="endArrow=none;html=1;rounded=0;entryX=0.5;entryY=1;entryDx=0;entryDy=0;exitX=0;exitY=0.5;exitDx=0;exitDy=0;" parent="1" source="durJml-ASHJohpNJdJDa-21" target="durJml-ASHJohpNJdJDa-20" edge="1">
          <mxGeometry relative="1" as="geometry">
            <mxPoint x="384" y="430" as="sourcePoint" />
            <mxPoint x="524" y="430" as="targetPoint" />
          </mxGeometry>
        </mxCell>
        <mxCell id="durJml-ASHJohpNJdJDa-29" value="" style="endArrow=none;html=1;rounded=0;entryX=0.5;entryY=1;entryDx=0;entryDy=0;exitX=0;exitY=0.5;exitDx=0;exitDy=0;" parent="1" source="durJml-ASHJohpNJdJDa-22" target="durJml-ASHJohpNJdJDa-20" edge="1">
          <mxGeometry relative="1" as="geometry">
            <mxPoint x="394" y="440" as="sourcePoint" />
            <mxPoint x="534" y="440" as="targetPoint" />
          </mxGeometry>
        </mxCell>
        <mxCell id="durJml-ASHJohpNJdJDa-30" value="" style="endArrow=none;html=1;rounded=0;entryX=0;entryY=0.5;entryDx=0;entryDy=0;exitX=0.5;exitY=1;exitDx=0;exitDy=0;" parent="1" source="durJml-ASHJohpNJdJDa-20" target="durJml-ASHJohpNJdJDa-23" edge="1">
          <mxGeometry relative="1" as="geometry">
            <mxPoint x="404" y="450" as="sourcePoint" />
            <mxPoint x="544" y="450" as="targetPoint" />
          </mxGeometry>
        </mxCell>
        <mxCell id="durJml-ASHJohpNJdJDa-31" value="Convocatoria" style="whiteSpace=wrap;html=1;align=center;fillColor=#fff2cc;strokeColor=#d6b656;" parent="1" vertex="1">
          <mxGeometry x="414" y="800" width="100" height="40" as="geometry" />
        </mxCell>
        <mxCell id="durJml-ASHJohpNJdJDa-32" value="Convocado" style="whiteSpace=wrap;html=1;align=center;fillColor=#fff2cc;strokeColor=#d6b656;" parent="1" vertex="1">
          <mxGeometry x="44" y="800" width="100" height="40" as="geometry" />
        </mxCell>
        <mxCell id="durJml-ASHJohpNJdJDa-35" value="Se reserva en" style="shape=rhombus;perimeter=rhombusPerimeter;whiteSpace=wrap;html=1;align=center;strokeColor=#b85450;fillColor=#f8cecc;" parent="1" vertex="1">
          <mxGeometry x="654" y="290" width="120" height="60" as="geometry" />
        </mxCell>
        <mxCell id="durJml-ASHJohpNJdJDa-36" value="" style="endArrow=none;html=1;rounded=0;entryX=0.5;entryY=1;entryDx=0;entryDy=0;exitX=1;exitY=0.5;exitDx=0;exitDy=0;" parent="1" source="durJml-ASHJohpNJdJDa-20" target="durJml-ASHJohpNJdJDa-35" edge="1">
          <mxGeometry relative="1" as="geometry">
            <mxPoint x="374" y="420" as="sourcePoint" />
            <mxPoint x="514" y="420" as="targetPoint" />
            <Array as="points">
              <mxPoint x="714" y="515" />
            </Array>
          </mxGeometry>
        </mxCell>
        <mxCell id="durJml-ASHJohpNJdJDa-37" value="(0,n)" style="edgeLabel;html=1;align=center;verticalAlign=middle;resizable=0;points=[];fontSize=13;" parent="durJml-ASHJohpNJdJDa-36" vertex="1" connectable="0">
          <mxGeometry x="0.0429" y="-1" relative="1" as="geometry">
            <mxPoint x="-51" y="33" as="offset" />
          </mxGeometry>
        </mxCell>
        <mxCell id="durJml-ASHJohpNJdJDa-38" value="" style="endArrow=none;html=1;rounded=0;entryX=0.5;entryY=0;entryDx=0;entryDy=0;exitX=1;exitY=0.5;exitDx=0;exitDy=0;" parent="1" source="durJml-ASHJohpNJdJDa-19" target="durJml-ASHJohpNJdJDa-35" edge="1">
          <mxGeometry relative="1" as="geometry">
            <mxPoint x="384" y="430" as="sourcePoint" />
            <mxPoint x="524" y="430" as="targetPoint" />
            <Array as="points">
              <mxPoint x="714" y="210" />
            </Array>
          </mxGeometry>
        </mxCell>
        <mxCell id="durJml-ASHJohpNJdJDa-39" value="(1,1)" style="edgeLabel;html=1;align=center;verticalAlign=middle;resizable=0;points=[];fontSize=13;" parent="durJml-ASHJohpNJdJDa-38" vertex="1" connectable="0">
          <mxGeometry x="0.0429" y="-1" relative="1" as="geometry">
            <mxPoint x="-59" y="-1" as="offset" />
          </mxGeometry>
        </mxCell>
        <mxCell id="durJml-ASHJohpNJdJDa-40" value="Franja Horaria" style="whiteSpace=wrap;html=1;align=center;strokeColor=#d6b656;fillColor=#fff2cc;" parent="1" vertex="1">
          <mxGeometry x="180" y="90" width="100" height="40" as="geometry" />
        </mxCell>
        <mxCell id="durJml-ASHJohpNJdJDa-41" value="Tiene" style="shape=rhombus;perimeter=rhombusPerimeter;whiteSpace=wrap;html=1;align=center;strokeColor=#b85450;fillColor=#f8cecc;" parent="1" vertex="1">
          <mxGeometry x="494" y="80" width="120" height="60" as="geometry" />
        </mxCell>
        <mxCell id="durJml-ASHJohpNJdJDa-42" value="(1,n)" style="endArrow=none;html=1;rounded=0;entryX=0;entryY=0.5;entryDx=0;entryDy=0;exitX=1;exitY=0.5;exitDx=0;exitDy=0;" parent="1" source="durJml-ASHJohpNJdJDa-40" target="durJml-ASHJohpNJdJDa-41" edge="1">
          <mxGeometry relative="1" as="geometry">
            <mxPoint x="434" y="180" as="sourcePoint" />
            <mxPoint x="484" y="140" as="targetPoint" />
            <Array as="points" />
          </mxGeometry>
        </mxCell>
        <mxCell id="durJml-ASHJohpNJdJDa-43" value="(1,n)" style="edgeLabel;html=1;align=center;verticalAlign=middle;resizable=0;points=[];fontSize=13;" parent="durJml-ASHJohpNJdJDa-42" vertex="1" connectable="0">
          <mxGeometry x="0.0429" y="-1" relative="1" as="geometry">
            <mxPoint x="-2" y="-1" as="offset" />
          </mxGeometry>
        </mxCell>
        <mxCell id="durJml-ASHJohpNJdJDa-44" value="" style="endArrow=none;html=1;rounded=0;entryX=0.5;entryY=0;entryDx=0;entryDy=0;exitX=0.5;exitY=1;exitDx=0;exitDy=0;" parent="1" source="durJml-ASHJohpNJdJDa-41" target="durJml-ASHJohpNJdJDa-19" edge="1">
          <mxGeometry relative="1" as="geometry">
            <mxPoint x="624" y="230" as="sourcePoint" />
            <mxPoint x="734" y="310" as="targetPoint" />
            <Array as="points" />
          </mxGeometry>
        </mxCell>
        <mxCell id="durJml-ASHJohpNJdJDa-45" value="(1,1)" style="edgeLabel;html=1;align=center;verticalAlign=middle;resizable=0;points=[];fontSize=13;" parent="durJml-ASHJohpNJdJDa-44" vertex="1" connectable="0">
          <mxGeometry x="0.0429" y="-1" relative="1" as="geometry">
            <mxPoint x="1" y="-1" as="offset" />
          </mxGeometry>
        </mxCell>
        <mxCell id="durJml-ASHJohpNJdJDa-46" value="id" style="ellipse;whiteSpace=wrap;html=1;align=center;fontStyle=4;strokeColor=#00CC00;" parent="1" vertex="1">
          <mxGeometry x="344" y="140" width="100" height="40" as="geometry" />
        </mxCell>
        <mxCell id="durJml-ASHJohpNJdJDa-47" value="nombre" style="ellipse;whiteSpace=wrap;html=1;align=center;strokeColor=#00CC00;" parent="1" vertex="1">
          <mxGeometry x="344" y="190" width="100" height="40" as="geometry" />
        </mxCell>
        <mxCell id="durJml-ASHJohpNJdJDa-48" value="aforo" style="ellipse;whiteSpace=wrap;html=1;align=center;strokeColor=#00CC00;" parent="1" vertex="1">
          <mxGeometry x="344" y="240" width="100" height="40" as="geometry" />
        </mxCell>
        <mxCell id="durJml-ASHJohpNJdJDa-49" value="" style="endArrow=none;html=1;rounded=0;exitX=1;exitY=0.5;exitDx=0;exitDy=0;entryX=0;entryY=0.5;entryDx=0;entryDy=0;" parent="1" source="durJml-ASHJohpNJdJDa-46" target="durJml-ASHJohpNJdJDa-19" edge="1">
          <mxGeometry relative="1" as="geometry">
            <mxPoint x="164" y="220" as="sourcePoint" />
            <mxPoint x="274" y="420" as="targetPoint" />
          </mxGeometry>
        </mxCell>
        <mxCell id="durJml-ASHJohpNJdJDa-50" value="" style="endArrow=none;html=1;rounded=0;exitX=1;exitY=0.5;exitDx=0;exitDy=0;entryX=0;entryY=0.5;entryDx=0;entryDy=0;" parent="1" source="durJml-ASHJohpNJdJDa-47" target="durJml-ASHJohpNJdJDa-19" edge="1">
          <mxGeometry relative="1" as="geometry">
            <mxPoint x="174" y="230" as="sourcePoint" />
            <mxPoint x="284" y="430" as="targetPoint" />
          </mxGeometry>
        </mxCell>
        <mxCell id="durJml-ASHJohpNJdJDa-51" value="" style="endArrow=none;html=1;rounded=0;exitX=1;exitY=0.5;exitDx=0;exitDy=0;entryX=0;entryY=0.5;entryDx=0;entryDy=0;" parent="1" source="durJml-ASHJohpNJdJDa-48" target="durJml-ASHJohpNJdJDa-19" edge="1">
          <mxGeometry relative="1" as="geometry">
            <mxPoint x="184" y="240" as="sourcePoint" />
            <mxPoint x="294" y="440" as="targetPoint" />
          </mxGeometry>
        </mxCell>
        <mxCell id="durJml-ASHJohpNJdJDa-52" value="id" style="ellipse;whiteSpace=wrap;html=1;align=center;fontStyle=4;strokeColor=#00CC00;" parent="1" vertex="1">
          <mxGeometry x="30" y="30" width="100" height="40" as="geometry" />
        </mxCell>
        <mxCell id="durJml-ASHJohpNJdJDa-53" value="horaInicio" style="ellipse;whiteSpace=wrap;html=1;align=center;strokeColor=#00CC00;" parent="1" vertex="1">
          <mxGeometry x="254" y="30" width="100" height="40" as="geometry" />
        </mxCell>
        <mxCell id="durJml-ASHJohpNJdJDa-54" value="horaFin" style="ellipse;whiteSpace=wrap;html=1;align=center;strokeColor=#00CC00;" parent="1" vertex="1">
          <mxGeometry x="364" y="30" width="100" height="40" as="geometry" />
        </mxCell>
        <mxCell id="durJml-ASHJohpNJdJDa-55" value="" style="endArrow=none;html=1;rounded=0;exitX=1;exitY=1;exitDx=0;exitDy=0;entryX=0.5;entryY=0;entryDx=0;entryDy=0;" parent="1" source="durJml-ASHJohpNJdJDa-52" target="durJml-ASHJohpNJdJDa-40" edge="1">
          <mxGeometry relative="1" as="geometry">
            <mxPoint x="454" y="190" as="sourcePoint" />
            <mxPoint x="514" y="240" as="targetPoint" />
          </mxGeometry>
        </mxCell>
        <mxCell id="durJml-ASHJohpNJdJDa-56" value="" style="endArrow=none;html=1;rounded=0;exitX=0.5;exitY=1;exitDx=0;exitDy=0;entryX=0.5;entryY=0;entryDx=0;entryDy=0;" parent="1" source="durJml-ASHJohpNJdJDa-53" target="durJml-ASHJohpNJdJDa-40" edge="1">
          <mxGeometry relative="1" as="geometry">
            <mxPoint x="464" y="200" as="sourcePoint" />
            <mxPoint x="524" y="250" as="targetPoint" />
          </mxGeometry>
        </mxCell>
        <mxCell id="durJml-ASHJohpNJdJDa-57" value="" style="endArrow=none;html=1;rounded=0;exitX=0;exitY=1;exitDx=0;exitDy=0;entryX=0.5;entryY=0;entryDx=0;entryDy=0;" parent="1" source="durJml-ASHJohpNJdJDa-54" target="durJml-ASHJohpNJdJDa-40" edge="1">
          <mxGeometry relative="1" as="geometry">
            <mxPoint x="474" y="210" as="sourcePoint" />
            <mxPoint x="534" y="260" as="targetPoint" />
          </mxGeometry>
        </mxCell>
        <mxCell id="durJml-ASHJohpNJdJDa-58" value="Tiene" style="shape=rhombus;perimeter=rhombusPerimeter;whiteSpace=wrap;html=1;align=center;strokeColor=#b85450;fillColor=#f8cecc;" parent="1" vertex="1">
          <mxGeometry x="404" y="640" width="120" height="60" as="geometry" />
        </mxCell>
        <mxCell id="durJml-ASHJohpNJdJDa-59" value="Convoca" style="shape=rhombus;perimeter=rhombusPerimeter;whiteSpace=wrap;html=1;align=center;strokeColor=#b85450;fillColor=#f8cecc;" parent="1" vertex="1">
          <mxGeometry x="224" y="790" width="120" height="60" as="geometry" />
        </mxCell>
        <mxCell id="durJml-ASHJohpNJdJDa-60" value="" style="endArrow=none;html=1;rounded=0;entryX=0;entryY=0.25;entryDx=0;entryDy=0;exitX=0.5;exitY=0;exitDx=0;exitDy=0;" parent="1" source="durJml-ASHJohpNJdJDa-58" target="durJml-ASHJohpNJdJDa-20" edge="1">
          <mxGeometry relative="1" as="geometry">
            <mxPoint x="374" y="420" as="sourcePoint" />
            <mxPoint x="514" y="420" as="targetPoint" />
            <Array as="points">
              <mxPoint x="464" y="505" />
            </Array>
          </mxGeometry>
        </mxCell>
        <mxCell id="durJml-ASHJohpNJdJDa-61" value="(1,1)" style="edgeLabel;html=1;align=center;verticalAlign=middle;resizable=0;points=[];fontSize=13;" parent="durJml-ASHJohpNJdJDa-60" vertex="1" connectable="0">
          <mxGeometry x="0.0429" y="-1" relative="1" as="geometry">
            <mxPoint as="offset" />
          </mxGeometry>
        </mxCell>
        <mxCell id="durJml-ASHJohpNJdJDa-62" value="" style="endArrow=none;html=1;rounded=0;entryX=0.5;entryY=1;entryDx=0;entryDy=0;exitX=0.5;exitY=0;exitDx=0;exitDy=0;" parent="1" source="durJml-ASHJohpNJdJDa-31" target="durJml-ASHJohpNJdJDa-58" edge="1">
          <mxGeometry relative="1" as="geometry">
            <mxPoint x="384" y="430" as="sourcePoint" />
            <mxPoint x="524" y="430" as="targetPoint" />
          </mxGeometry>
        </mxCell>
        <mxCell id="durJml-ASHJohpNJdJDa-63" value="(0,1)" style="edgeLabel;html=1;align=center;verticalAlign=middle;resizable=0;points=[];fontSize=13;" parent="durJml-ASHJohpNJdJDa-62" vertex="1" connectable="0">
          <mxGeometry x="0.0429" y="-1" relative="1" as="geometry">
            <mxPoint as="offset" />
          </mxGeometry>
        </mxCell>
        <mxCell id="durJml-ASHJohpNJdJDa-64" value="" style="endArrow=none;html=1;rounded=0;entryX=0;entryY=0.5;entryDx=0;entryDy=0;exitX=1;exitY=0.5;exitDx=0;exitDy=0;" parent="1" source="durJml-ASHJohpNJdJDa-59" target="durJml-ASHJohpNJdJDa-31" edge="1">
          <mxGeometry relative="1" as="geometry">
            <mxPoint x="394" y="440" as="sourcePoint" />
            <mxPoint x="534" y="440" as="targetPoint" />
          </mxGeometry>
        </mxCell>
        <mxCell id="durJml-ASHJohpNJdJDa-65" value="(1,1)" style="edgeLabel;html=1;align=center;verticalAlign=middle;resizable=0;points=[];fontSize=13;" parent="durJml-ASHJohpNJdJDa-64" vertex="1" connectable="0">
          <mxGeometry x="0.0429" y="-1" relative="1" as="geometry">
            <mxPoint as="offset" />
          </mxGeometry>
        </mxCell>
        <mxCell id="durJml-ASHJohpNJdJDa-66" value="" style="endArrow=none;html=1;rounded=0;entryX=0;entryY=0.5;entryDx=0;entryDy=0;exitX=1;exitY=0.5;exitDx=0;exitDy=0;" parent="1" source="durJml-ASHJohpNJdJDa-32" target="durJml-ASHJohpNJdJDa-59" edge="1">
          <mxGeometry relative="1" as="geometry">
            <mxPoint x="404" y="450" as="sourcePoint" />
            <mxPoint x="544" y="450" as="targetPoint" />
          </mxGeometry>
        </mxCell>
        <mxCell id="durJml-ASHJohpNJdJDa-67" value="(0,n)" style="edgeLabel;html=1;align=center;verticalAlign=middle;resizable=0;points=[];fontSize=13;" parent="durJml-ASHJohpNJdJDa-66" vertex="1" connectable="0">
          <mxGeometry x="0.0429" y="-1" relative="1" as="geometry">
            <mxPoint as="offset" />
          </mxGeometry>
        </mxCell>
        <mxCell id="durJml-ASHJohpNJdJDa-68" value="es Convocado" style="shape=rhombus;perimeter=rhombusPerimeter;whiteSpace=wrap;html=1;align=center;strokeColor=#b85450;fillColor=#f8cecc;" parent="1" vertex="1">
          <mxGeometry x="254" y="585.5" width="120" height="60" as="geometry" />
        </mxCell>
        <mxCell id="durJml-ASHJohpNJdJDa-69" value="" style="endArrow=none;html=1;rounded=0;entryX=0.5;entryY=0;entryDx=0;entryDy=0;exitX=0.5;exitY=1;exitDx=0;exitDy=0;" parent="1" source="durJml-ASHJohpNJdJDa-1" target="durJml-ASHJohpNJdJDa-68" edge="1">
          <mxGeometry relative="1" as="geometry">
            <mxPoint x="374" y="420" as="sourcePoint" />
            <mxPoint x="514" y="420" as="targetPoint" />
          </mxGeometry>
        </mxCell>
        <mxCell id="durJml-ASHJohpNJdJDa-70" value="(1,1)" style="edgeLabel;html=1;align=center;verticalAlign=middle;resizable=0;points=[];fontSize=13;" parent="durJml-ASHJohpNJdJDa-69" vertex="1" connectable="0">
          <mxGeometry x="0.0429" y="-1" relative="1" as="geometry">
            <mxPoint as="offset" />
          </mxGeometry>
        </mxCell>
        <mxCell id="durJml-ASHJohpNJdJDa-71" value="" style="endArrow=none;html=1;rounded=0;entryX=0.5;entryY=0;entryDx=0;entryDy=0;exitX=0.5;exitY=1;exitDx=0;exitDy=0;" parent="1" source="durJml-ASHJohpNJdJDa-68" target="durJml-ASHJohpNJdJDa-32" edge="1">
          <mxGeometry relative="1" as="geometry">
            <mxPoint x="624" y="525" as="sourcePoint" />
            <mxPoint x="724" y="360" as="targetPoint" />
            <Array as="points">
              <mxPoint x="314" y="720" />
              <mxPoint x="94" y="720" />
            </Array>
          </mxGeometry>
        </mxCell>
        <mxCell id="durJml-ASHJohpNJdJDa-72" value="(0,n)" style="edgeLabel;html=1;align=center;verticalAlign=middle;resizable=0;points=[];fontSize=13;" parent="durJml-ASHJohpNJdJDa-71" vertex="1" connectable="0">
          <mxGeometry x="0.0429" y="-1" relative="1" as="geometry">
            <mxPoint x="121" y="-49" as="offset" />
          </mxGeometry>
        </mxCell>
        <mxCell id="durJml-ASHJohpNJdJDa-73" value="id" style="ellipse;whiteSpace=wrap;html=1;align=center;fontStyle=4;strokeColor=#00CC00;" parent="1" vertex="1">
          <mxGeometry x="294" y="900" width="100" height="40" as="geometry" />
        </mxCell>
        <mxCell id="durJml-ASHJohpNJdJDa-74" value="enlace" style="ellipse;whiteSpace=wrap;html=1;align=center;strokeColor=#00CC00;" parent="1" vertex="1">
          <mxGeometry x="414" y="900" width="100" height="40" as="geometry" />
        </mxCell>
        <mxCell id="durJml-ASHJohpNJdJDa-75" value="observaciones" style="ellipse;whiteSpace=wrap;html=1;align=center;strokeColor=#00CC00;" parent="1" vertex="1">
          <mxGeometry x="534" y="900" width="100" height="40" as="geometry" />
        </mxCell>
        <mxCell id="durJml-ASHJohpNJdJDa-76" value="" style="endArrow=none;html=1;rounded=0;entryX=0.5;entryY=0;entryDx=0;entryDy=0;exitX=0.5;exitY=1;exitDx=0;exitDy=0;" parent="1" source="durJml-ASHJohpNJdJDa-31" target="durJml-ASHJohpNJdJDa-73" edge="1">
          <mxGeometry relative="1" as="geometry">
            <mxPoint x="574" y="545" as="sourcePoint" />
            <mxPoint x="694" y="736" as="targetPoint" />
          </mxGeometry>
        </mxCell>
        <mxCell id="durJml-ASHJohpNJdJDa-77" value="" style="endArrow=none;html=1;rounded=0;entryX=0.5;entryY=0;entryDx=0;entryDy=0;exitX=0.5;exitY=1;exitDx=0;exitDy=0;" parent="1" source="durJml-ASHJohpNJdJDa-31" target="durJml-ASHJohpNJdJDa-74" edge="1">
          <mxGeometry relative="1" as="geometry">
            <mxPoint x="584" y="555" as="sourcePoint" />
            <mxPoint x="704" y="746" as="targetPoint" />
          </mxGeometry>
        </mxCell>
        <mxCell id="durJml-ASHJohpNJdJDa-78" value="" style="endArrow=none;html=1;rounded=0;entryX=0.5;entryY=0;entryDx=0;entryDy=0;exitX=0.5;exitY=1;exitDx=0;exitDy=0;" parent="1" source="durJml-ASHJohpNJdJDa-31" target="durJml-ASHJohpNJdJDa-75" edge="1">
          <mxGeometry relative="1" as="geometry">
            <mxPoint x="594" y="565" as="sourcePoint" />
            <mxPoint x="714" y="756" as="targetPoint" />
          </mxGeometry>
        </mxCell>
        <mxCell id="ZPJrf0h60KokDPGA5aFj-1" value="diaSemana" style="ellipse;whiteSpace=wrap;html=1;align=center;strokeColor=#00CC00;" parent="1" vertex="1">
          <mxGeometry x="144" y="30" width="100" height="40" as="geometry" />
        </mxCell>
        <mxCell id="ZPJrf0h60KokDPGA5aFj-2" value="" style="endArrow=none;html=1;rounded=0;exitX=0.5;exitY=1;exitDx=0;exitDy=0;entryX=0.5;entryY=0;entryDx=0;entryDy=0;" parent="1" source="ZPJrf0h60KokDPGA5aFj-1" target="durJml-ASHJohpNJdJDa-40" edge="1">
          <mxGeometry relative="1" as="geometry">
            <mxPoint x="140" y="60" as="sourcePoint" />
            <mxPoint x="215" y="100" as="targetPoint" />
          </mxGeometry>
        </mxCell>
      </root>
    </mxGraphModel>
  </diagram>
  <diagram id="mQ-EvEpOiLViZEmgTq-J" name="ER_2">
    <mxGraphModel dx="1434" dy="836" grid="1" gridSize="10" guides="1" tooltips="1" connect="1" arrows="1" fold="1" page="1" pageScale="1" pageWidth="827" pageHeight="1169" math="0" shadow="0">
      <root>
        <mxCell id="0" />
        <mxCell id="1" parent="0" />
        <mxCell id="2XiwG7TkOCnh4Mz1TL8S-1" value="Usuario" style="whiteSpace=wrap;html=1;align=center;strokeColor=#d6b656;fillColor=#fff2cc;" parent="1" vertex="1">
          <mxGeometry x="230" y="370" width="100" height="40" as="geometry" />
        </mxCell>
        <mxCell id="2XiwG7TkOCnh4Mz1TL8S-2" value="nombre" style="ellipse;whiteSpace=wrap;html=1;align=center;strokeColor=#00CC00;" parent="1" vertex="1">
          <mxGeometry x="20" y="230" width="100" height="40" as="geometry" />
        </mxCell>
        <mxCell id="2XiwG7TkOCnh4Mz1TL8S-3" value="id" style="ellipse;whiteSpace=wrap;html=1;align=center;fontStyle=4;strokeColor=#00CC00;" parent="1" vertex="1">
          <mxGeometry x="20" y="170" width="100" height="40" as="geometry" />
        </mxCell>
        <mxCell id="2XiwG7TkOCnh4Mz1TL8S-4" value="apellidos" style="ellipse;whiteSpace=wrap;html=1;align=center;strokeColor=#00CC00;" parent="1" vertex="1">
          <mxGeometry x="20" y="290" width="100" height="40" as="geometry" />
        </mxCell>
        <mxCell id="2XiwG7TkOCnh4Mz1TL8S-5" value="correo" style="ellipse;whiteSpace=wrap;html=1;align=center;strokeColor=#00CC00;" parent="1" vertex="1">
          <mxGeometry x="20" y="350" width="100" height="40" as="geometry" />
        </mxCell>
        <mxCell id="2XiwG7TkOCnh4Mz1TL8S-6" value="password" style="ellipse;whiteSpace=wrap;html=1;align=center;strokeColor=#00CC00;" parent="1" vertex="1">
          <mxGeometry x="20" y="410" width="100" height="40" as="geometry" />
        </mxCell>
        <mxCell id="2XiwG7TkOCnh4Mz1TL8S-7" value="telefono" style="ellipse;whiteSpace=wrap;html=1;align=center;strokeColor=#00CC00;" parent="1" vertex="1">
          <mxGeometry x="20" y="474.5" width="100" height="40" as="geometry" />
        </mxCell>
        <mxCell id="2XiwG7TkOCnh4Mz1TL8S-8" value="administrdor" style="ellipse;whiteSpace=wrap;html=1;align=center;strokeColor=#00CC00;" parent="1" vertex="1">
          <mxGeometry x="20" y="530" width="100" height="40" as="geometry" />
        </mxCell>
        <mxCell id="2XiwG7TkOCnh4Mz1TL8S-9" value="bloqueado" style="ellipse;whiteSpace=wrap;html=1;align=center;strokeColor=#00CC00;" parent="1" vertex="1">
          <mxGeometry x="20" y="590" width="100" height="40" as="geometry" />
        </mxCell>
        <mxCell id="2XiwG7TkOCnh4Mz1TL8S-10" value="" style="endArrow=none;html=1;rounded=0;exitX=1;exitY=0.5;exitDx=0;exitDy=0;entryX=0;entryY=0.5;entryDx=0;entryDy=0;" parent="1" source="2XiwG7TkOCnh4Mz1TL8S-3" target="2XiwG7TkOCnh4Mz1TL8S-1" edge="1">
          <mxGeometry relative="1" as="geometry">
            <mxPoint x="270" y="510" as="sourcePoint" />
            <mxPoint x="430" y="510" as="targetPoint" />
          </mxGeometry>
        </mxCell>
        <mxCell id="2XiwG7TkOCnh4Mz1TL8S-11" value="" style="endArrow=none;html=1;rounded=0;exitX=1;exitY=0.5;exitDx=0;exitDy=0;entryX=0;entryY=0.5;entryDx=0;entryDy=0;" parent="1" source="2XiwG7TkOCnh4Mz1TL8S-2" target="2XiwG7TkOCnh4Mz1TL8S-1" edge="1">
          <mxGeometry relative="1" as="geometry">
            <mxPoint x="130" y="280" as="sourcePoint" />
            <mxPoint x="240" y="480" as="targetPoint" />
          </mxGeometry>
        </mxCell>
        <mxCell id="2XiwG7TkOCnh4Mz1TL8S-12" value="" style="endArrow=none;html=1;rounded=0;exitX=1;exitY=0.5;exitDx=0;exitDy=0;entryX=0;entryY=0.5;entryDx=0;entryDy=0;" parent="1" source="2XiwG7TkOCnh4Mz1TL8S-4" target="2XiwG7TkOCnh4Mz1TL8S-1" edge="1">
          <mxGeometry relative="1" as="geometry">
            <mxPoint x="140" y="290" as="sourcePoint" />
            <mxPoint x="190" y="490" as="targetPoint" />
          </mxGeometry>
        </mxCell>
        <mxCell id="2XiwG7TkOCnh4Mz1TL8S-13" value="" style="endArrow=none;html=1;rounded=0;exitX=1;exitY=0.5;exitDx=0;exitDy=0;entryX=0;entryY=0.5;entryDx=0;entryDy=0;" parent="1" source="2XiwG7TkOCnh4Mz1TL8S-5" target="2XiwG7TkOCnh4Mz1TL8S-1" edge="1">
          <mxGeometry relative="1" as="geometry">
            <mxPoint x="150" y="300" as="sourcePoint" />
            <mxPoint x="220" y="490" as="targetPoint" />
          </mxGeometry>
        </mxCell>
        <mxCell id="2XiwG7TkOCnh4Mz1TL8S-14" value="" style="endArrow=none;html=1;rounded=0;exitX=1;exitY=0.5;exitDx=0;exitDy=0;entryX=0;entryY=0.5;entryDx=0;entryDy=0;" parent="1" source="2XiwG7TkOCnh4Mz1TL8S-6" target="2XiwG7TkOCnh4Mz1TL8S-1" edge="1">
          <mxGeometry relative="1" as="geometry">
            <mxPoint x="160" y="310" as="sourcePoint" />
            <mxPoint x="270" y="510" as="targetPoint" />
          </mxGeometry>
        </mxCell>
        <mxCell id="2XiwG7TkOCnh4Mz1TL8S-15" value="" style="endArrow=none;html=1;rounded=0;exitX=1;exitY=0.5;exitDx=0;exitDy=0;entryX=0;entryY=0.5;entryDx=0;entryDy=0;" parent="1" source="2XiwG7TkOCnh4Mz1TL8S-7" target="2XiwG7TkOCnh4Mz1TL8S-1" edge="1">
          <mxGeometry relative="1" as="geometry">
            <mxPoint x="170" y="320" as="sourcePoint" />
            <mxPoint x="280" y="520" as="targetPoint" />
          </mxGeometry>
        </mxCell>
        <mxCell id="2XiwG7TkOCnh4Mz1TL8S-16" value="" style="endArrow=none;html=1;rounded=0;exitX=1;exitY=0.5;exitDx=0;exitDy=0;entryX=0;entryY=0.5;entryDx=0;entryDy=0;" parent="1" source="2XiwG7TkOCnh4Mz1TL8S-8" target="2XiwG7TkOCnh4Mz1TL8S-1" edge="1">
          <mxGeometry relative="1" as="geometry">
            <mxPoint x="180" y="330" as="sourcePoint" />
            <mxPoint x="290" y="530" as="targetPoint" />
          </mxGeometry>
        </mxCell>
        <mxCell id="2XiwG7TkOCnh4Mz1TL8S-17" value="" style="endArrow=none;html=1;rounded=0;exitX=1;exitY=0.5;exitDx=0;exitDy=0;entryX=0;entryY=0.5;entryDx=0;entryDy=0;" parent="1" source="2XiwG7TkOCnh4Mz1TL8S-9" target="2XiwG7TkOCnh4Mz1TL8S-1" edge="1">
          <mxGeometry relative="1" as="geometry">
            <mxPoint x="190" y="340" as="sourcePoint" />
            <mxPoint x="300" y="540" as="targetPoint" />
          </mxGeometry>
        </mxCell>
        <mxCell id="2XiwG7TkOCnh4Mz1TL8S-18" value="Establecimiento" style="whiteSpace=wrap;html=1;align=center;strokeColor=#d6b656;fillColor=#fff2cc;" parent="1" vertex="1">
          <mxGeometry x="610" y="130" width="100" height="40" as="geometry" />
        </mxCell>
        <mxCell id="2XiwG7TkOCnh4Mz1TL8S-19" value="Reserva" style="whiteSpace=wrap;html=1;align=center;strokeColor=#d6b656;fillColor=#fff2cc;" parent="1" vertex="1">
          <mxGeometry x="610" y="710" width="100" height="40" as="geometry" />
        </mxCell>
        <mxCell id="2XiwG7TkOCnh4Mz1TL8S-20" value="id" style="ellipse;whiteSpace=wrap;html=1;align=center;fontStyle=4;strokeColor=#00CC00;" parent="1" vertex="1">
          <mxGeometry x="530" y="810" width="100" height="40" as="geometry" />
        </mxCell>
        <mxCell id="2XiwG7TkOCnh4Mz1TL8S-21" value="fechaHoraReserva" style="ellipse;whiteSpace=wrap;html=1;align=center;strokeColor=#00CC00;" parent="1" vertex="1">
          <mxGeometry x="596" y="870" width="130" height="40" as="geometry" />
        </mxCell>
        <mxCell id="2XiwG7TkOCnh4Mz1TL8S-22" value="horaFin" style="ellipse;whiteSpace=wrap;html=1;align=center;strokeColor=#00CC00;" parent="1" vertex="1">
          <mxGeometry x="690" y="810" width="100" height="40" as="geometry" />
        </mxCell>
        <mxCell id="2XiwG7TkOCnh4Mz1TL8S-23" value="Realiza" style="shape=rhombus;perimeter=rhombusPerimeter;whiteSpace=wrap;html=1;align=center;strokeColor=#b85450;fillColor=#f8cecc;" parent="1" vertex="1">
          <mxGeometry x="446" y="360" width="120" height="60" as="geometry" />
        </mxCell>
        <mxCell id="2XiwG7TkOCnh4Mz1TL8S-24" value="" style="endArrow=none;html=1;rounded=0;entryX=0;entryY=0.5;entryDx=0;entryDy=0;exitX=1;exitY=0.5;exitDx=0;exitDy=0;" parent="1" source="2XiwG7TkOCnh4Mz1TL8S-1" target="2XiwG7TkOCnh4Mz1TL8S-23" edge="1">
          <mxGeometry relative="1" as="geometry">
            <mxPoint x="270" y="510" as="sourcePoint" />
            <mxPoint x="430" y="510" as="targetPoint" />
          </mxGeometry>
        </mxCell>
        <mxCell id="2XiwG7TkOCnh4Mz1TL8S-25" value="(1,1)" style="edgeLabel;html=1;align=center;verticalAlign=middle;resizable=0;points=[];fontSize=13;" parent="2XiwG7TkOCnh4Mz1TL8S-24" vertex="1" connectable="0">
          <mxGeometry x="0.0429" y="-1" relative="1" as="geometry">
            <mxPoint as="offset" />
          </mxGeometry>
        </mxCell>
        <mxCell id="2XiwG7TkOCnh4Mz1TL8S-26" value="" style="endArrow=none;html=1;rounded=0;entryX=0.5;entryY=0;entryDx=0;entryDy=0;exitX=1;exitY=0.5;exitDx=0;exitDy=0;" parent="1" source="2XiwG7TkOCnh4Mz1TL8S-23" target="2XiwG7TkOCnh4Mz1TL8S-19" edge="1">
          <mxGeometry relative="1" as="geometry">
            <mxPoint x="340" y="480" as="sourcePoint" />
            <mxPoint x="480" y="480" as="targetPoint" />
            <Array as="points">
              <mxPoint x="660" y="390" />
            </Array>
          </mxGeometry>
        </mxCell>
        <mxCell id="2XiwG7TkOCnh4Mz1TL8S-27" value="(0,n)" style="edgeLabel;html=1;align=center;verticalAlign=middle;resizable=0;points=[];fontSize=13;" parent="2XiwG7TkOCnh4Mz1TL8S-26" vertex="1" connectable="0">
          <mxGeometry x="-0.0459" y="1" relative="1" as="geometry">
            <mxPoint as="offset" />
          </mxGeometry>
        </mxCell>
        <mxCell id="2XiwG7TkOCnh4Mz1TL8S-28" value="" style="endArrow=none;html=1;rounded=0;entryX=0.5;entryY=1;entryDx=0;entryDy=0;exitX=0.5;exitY=0;exitDx=0;exitDy=0;" parent="1" source="2XiwG7TkOCnh4Mz1TL8S-20" target="2XiwG7TkOCnh4Mz1TL8S-19" edge="1">
          <mxGeometry relative="1" as="geometry">
            <mxPoint x="350" y="490" as="sourcePoint" />
            <mxPoint x="490" y="490" as="targetPoint" />
          </mxGeometry>
        </mxCell>
        <mxCell id="2XiwG7TkOCnh4Mz1TL8S-29" value="" style="endArrow=none;html=1;rounded=0;entryX=0.5;entryY=1;entryDx=0;entryDy=0;exitX=0.5;exitY=0;exitDx=0;exitDy=0;" parent="1" source="2XiwG7TkOCnh4Mz1TL8S-21" target="2XiwG7TkOCnh4Mz1TL8S-19" edge="1">
          <mxGeometry relative="1" as="geometry">
            <mxPoint x="360" y="500" as="sourcePoint" />
            <mxPoint x="500" y="500" as="targetPoint" />
          </mxGeometry>
        </mxCell>
        <mxCell id="2XiwG7TkOCnh4Mz1TL8S-30" value="" style="endArrow=none;html=1;rounded=0;entryX=0.5;entryY=0;entryDx=0;entryDy=0;exitX=0.5;exitY=1;exitDx=0;exitDy=0;" parent="1" source="2XiwG7TkOCnh4Mz1TL8S-19" target="2XiwG7TkOCnh4Mz1TL8S-22" edge="1">
          <mxGeometry relative="1" as="geometry">
            <mxPoint x="370" y="510" as="sourcePoint" />
            <mxPoint x="510" y="510" as="targetPoint" />
          </mxGeometry>
        </mxCell>
        <mxCell id="2XiwG7TkOCnh4Mz1TL8S-31" value="Convocatoria" style="whiteSpace=wrap;html=1;align=center;fillColor=#fff2cc;strokeColor=#d6b656;" parent="1" vertex="1">
          <mxGeometry x="380" y="860" width="100" height="40" as="geometry" />
        </mxCell>
        <mxCell id="2XiwG7TkOCnh4Mz1TL8S-32" value="Convocado" style="whiteSpace=wrap;html=1;align=center;fillColor=#fff2cc;strokeColor=#d6b656;" parent="1" vertex="1">
          <mxGeometry x="10" y="860" width="100" height="40" as="geometry" />
        </mxCell>
        <mxCell id="2XiwG7TkOCnh4Mz1TL8S-33" value="Se reserva en" style="shape=rhombus;perimeter=rhombusPerimeter;whiteSpace=wrap;html=1;align=center;strokeColor=#b85450;fillColor=#f8cecc;" parent="1" vertex="1">
          <mxGeometry x="680" y="400" width="120" height="60" as="geometry" />
        </mxCell>
        <mxCell id="2XiwG7TkOCnh4Mz1TL8S-34" value="" style="endArrow=none;html=1;rounded=0;entryX=0.5;entryY=1;entryDx=0;entryDy=0;exitX=1;exitY=0.5;exitDx=0;exitDy=0;" parent="1" source="2XiwG7TkOCnh4Mz1TL8S-19" target="2XiwG7TkOCnh4Mz1TL8S-33" edge="1">
          <mxGeometry relative="1" as="geometry">
            <mxPoint x="340" y="480" as="sourcePoint" />
            <mxPoint x="480" y="480" as="targetPoint" />
            <Array as="points">
              <mxPoint x="740" y="730" />
            </Array>
          </mxGeometry>
        </mxCell>
        <mxCell id="2XiwG7TkOCnh4Mz1TL8S-35" value="(0,n)" style="edgeLabel;html=1;align=center;verticalAlign=middle;resizable=0;points=[];fontSize=13;" parent="2XiwG7TkOCnh4Mz1TL8S-34" vertex="1" connectable="0">
          <mxGeometry x="0.0429" y="-1" relative="1" as="geometry">
            <mxPoint x="-1" y="-58" as="offset" />
          </mxGeometry>
        </mxCell>
        <mxCell id="2XiwG7TkOCnh4Mz1TL8S-36" value="" style="endArrow=none;html=1;rounded=0;entryX=0.5;entryY=0;entryDx=0;entryDy=0;exitX=1;exitY=0.5;exitDx=0;exitDy=0;" parent="1" source="2XiwG7TkOCnh4Mz1TL8S-18" target="2XiwG7TkOCnh4Mz1TL8S-33" edge="1">
          <mxGeometry relative="1" as="geometry">
            <mxPoint x="350" y="490" as="sourcePoint" />
            <mxPoint x="490" y="490" as="targetPoint" />
            <Array as="points">
              <mxPoint x="740" y="150" />
            </Array>
          </mxGeometry>
        </mxCell>
        <mxCell id="2XiwG7TkOCnh4Mz1TL8S-37" value="(1,1)" style="edgeLabel;html=1;align=center;verticalAlign=middle;resizable=0;points=[];fontSize=13;" parent="2XiwG7TkOCnh4Mz1TL8S-36" vertex="1" connectable="0">
          <mxGeometry x="0.0429" y="-1" relative="1" as="geometry">
            <mxPoint x="1" y="6" as="offset" />
          </mxGeometry>
        </mxCell>
        <mxCell id="2XiwG7TkOCnh4Mz1TL8S-38" value="Franja Horaria" style="whiteSpace=wrap;html=1;align=center;strokeColor=#d6b656;fillColor=#fff2cc;" parent="1" vertex="1">
          <mxGeometry x="180" y="130" width="100" height="40" as="geometry" />
        </mxCell>
        <mxCell id="2XiwG7TkOCnh4Mz1TL8S-39" value="Tiene" style="shape=rhombus;perimeter=rhombusPerimeter;whiteSpace=wrap;html=1;align=center;strokeColor=#b85450;fillColor=#f8cecc;" parent="1" vertex="1">
          <mxGeometry x="370" y="120" width="120" height="60" as="geometry" />
        </mxCell>
        <mxCell id="2XiwG7TkOCnh4Mz1TL8S-40" value="" style="endArrow=none;html=1;rounded=0;entryX=0;entryY=0.5;entryDx=0;entryDy=0;exitX=1;exitY=0.5;exitDx=0;exitDy=0;" parent="1" source="2XiwG7TkOCnh4Mz1TL8S-38" target="2XiwG7TkOCnh4Mz1TL8S-39" edge="1">
          <mxGeometry relative="1" as="geometry">
            <mxPoint x="310" y="220" as="sourcePoint" />
            <mxPoint x="360" y="180" as="targetPoint" />
            <Array as="points" />
          </mxGeometry>
        </mxCell>
        <mxCell id="2XiwG7TkOCnh4Mz1TL8S-41" value="(1,n)" style="edgeLabel;html=1;align=center;verticalAlign=middle;resizable=0;points=[];fontSize=13;" parent="2XiwG7TkOCnh4Mz1TL8S-40" vertex="1" connectable="0">
          <mxGeometry x="0.0429" y="-1" relative="1" as="geometry">
            <mxPoint x="-2" y="-1" as="offset" />
          </mxGeometry>
        </mxCell>
        <mxCell id="2XiwG7TkOCnh4Mz1TL8S-42" value="" style="endArrow=none;html=1;rounded=0;entryX=0;entryY=0.5;entryDx=0;entryDy=0;exitX=1;exitY=0.5;exitDx=0;exitDy=0;" parent="1" source="2XiwG7TkOCnh4Mz1TL8S-39" target="2XiwG7TkOCnh4Mz1TL8S-18" edge="1">
          <mxGeometry relative="1" as="geometry">
            <mxPoint x="590" y="290" as="sourcePoint" />
            <mxPoint x="700" y="370" as="targetPoint" />
            <Array as="points" />
          </mxGeometry>
        </mxCell>
        <mxCell id="2XiwG7TkOCnh4Mz1TL8S-43" value="(1,1)" style="edgeLabel;html=1;align=center;verticalAlign=middle;resizable=0;points=[];fontSize=13;" parent="2XiwG7TkOCnh4Mz1TL8S-42" vertex="1" connectable="0">
          <mxGeometry x="0.0429" y="-1" relative="1" as="geometry">
            <mxPoint x="1" y="-1" as="offset" />
          </mxGeometry>
        </mxCell>
        <mxCell id="2XiwG7TkOCnh4Mz1TL8S-44" value="id" style="ellipse;whiteSpace=wrap;html=1;align=center;fontStyle=4;strokeColor=#00CC00;" parent="1" vertex="1">
          <mxGeometry x="466" y="70" width="100" height="40" as="geometry" />
        </mxCell>
        <mxCell id="2XiwG7TkOCnh4Mz1TL8S-45" value="nombre" style="ellipse;whiteSpace=wrap;html=1;align=center;strokeColor=#00CC00;" parent="1" vertex="1">
          <mxGeometry x="530" y="30" width="100" height="40" as="geometry" />
        </mxCell>
        <mxCell id="2XiwG7TkOCnh4Mz1TL8S-46" value="aforo" style="ellipse;whiteSpace=wrap;html=1;align=center;strokeColor=#00CC00;" parent="1" vertex="1">
          <mxGeometry x="620" y="60" width="100" height="40" as="geometry" />
        </mxCell>
        <mxCell id="2XiwG7TkOCnh4Mz1TL8S-47" value="" style="endArrow=none;html=1;rounded=0;exitX=0.5;exitY=1;exitDx=0;exitDy=0;entryX=0.5;entryY=0;entryDx=0;entryDy=0;" parent="1" source="2XiwG7TkOCnh4Mz1TL8S-44" target="2XiwG7TkOCnh4Mz1TL8S-18" edge="1">
          <mxGeometry relative="1" as="geometry">
            <mxPoint x="130" y="280" as="sourcePoint" />
            <mxPoint x="240" y="480" as="targetPoint" />
          </mxGeometry>
        </mxCell>
        <mxCell id="2XiwG7TkOCnh4Mz1TL8S-48" value="" style="endArrow=none;html=1;rounded=0;exitX=0.5;exitY=1;exitDx=0;exitDy=0;entryX=0.5;entryY=0;entryDx=0;entryDy=0;" parent="1" source="2XiwG7TkOCnh4Mz1TL8S-45" target="2XiwG7TkOCnh4Mz1TL8S-18" edge="1">
          <mxGeometry relative="1" as="geometry">
            <mxPoint x="140" y="290" as="sourcePoint" />
            <mxPoint x="250" y="490" as="targetPoint" />
          </mxGeometry>
        </mxCell>
        <mxCell id="2XiwG7TkOCnh4Mz1TL8S-49" value="" style="endArrow=none;html=1;rounded=0;exitX=0.5;exitY=1;exitDx=0;exitDy=0;entryX=0.5;entryY=0;entryDx=0;entryDy=0;" parent="1" source="2XiwG7TkOCnh4Mz1TL8S-46" target="2XiwG7TkOCnh4Mz1TL8S-18" edge="1">
          <mxGeometry relative="1" as="geometry">
            <mxPoint x="150" y="300" as="sourcePoint" />
            <mxPoint x="260" y="500" as="targetPoint" />
          </mxGeometry>
        </mxCell>
        <mxCell id="2XiwG7TkOCnh4Mz1TL8S-50" value="id" style="ellipse;whiteSpace=wrap;html=1;align=center;fontStyle=4;strokeColor=#00CC00;" parent="1" vertex="1">
          <mxGeometry x="10" y="30" width="100" height="40" as="geometry" />
        </mxCell>
        <mxCell id="2XiwG7TkOCnh4Mz1TL8S-51" value="horaInicio" style="ellipse;whiteSpace=wrap;html=1;align=center;strokeColor=#00CC00;" parent="1" vertex="1">
          <mxGeometry x="230" y="30" width="100" height="40" as="geometry" />
        </mxCell>
        <mxCell id="2XiwG7TkOCnh4Mz1TL8S-52" value="horaFin" style="ellipse;whiteSpace=wrap;html=1;align=center;strokeColor=#00CC00;" parent="1" vertex="1">
          <mxGeometry x="350" y="30" width="100" height="40" as="geometry" />
        </mxCell>
        <mxCell id="2XiwG7TkOCnh4Mz1TL8S-53" value="" style="endArrow=none;html=1;rounded=0;exitX=0.5;exitY=1;exitDx=0;exitDy=0;entryX=0.5;entryY=0;entryDx=0;entryDy=0;" parent="1" source="2XiwG7TkOCnh4Mz1TL8S-50" target="2XiwG7TkOCnh4Mz1TL8S-38" edge="1">
          <mxGeometry relative="1" as="geometry">
            <mxPoint x="330" y="230" as="sourcePoint" />
            <mxPoint x="390" y="280" as="targetPoint" />
          </mxGeometry>
        </mxCell>
        <mxCell id="2XiwG7TkOCnh4Mz1TL8S-54" value="" style="endArrow=none;html=1;rounded=0;exitX=0.5;exitY=1;exitDx=0;exitDy=0;entryX=0.5;entryY=0;entryDx=0;entryDy=0;" parent="1" source="2XiwG7TkOCnh4Mz1TL8S-51" target="2XiwG7TkOCnh4Mz1TL8S-38" edge="1">
          <mxGeometry relative="1" as="geometry">
            <mxPoint x="340" y="240" as="sourcePoint" />
            <mxPoint x="400" y="290" as="targetPoint" />
          </mxGeometry>
        </mxCell>
        <mxCell id="2XiwG7TkOCnh4Mz1TL8S-55" value="" style="endArrow=none;html=1;rounded=0;exitX=0.5;exitY=1;exitDx=0;exitDy=0;entryX=0.5;entryY=0;entryDx=0;entryDy=0;" parent="1" source="2XiwG7TkOCnh4Mz1TL8S-52" target="2XiwG7TkOCnh4Mz1TL8S-38" edge="1">
          <mxGeometry relative="1" as="geometry">
            <mxPoint x="350" y="250" as="sourcePoint" />
            <mxPoint x="410" y="300" as="targetPoint" />
          </mxGeometry>
        </mxCell>
        <mxCell id="2XiwG7TkOCnh4Mz1TL8S-56" value="Tiene" style="shape=rhombus;perimeter=rhombusPerimeter;whiteSpace=wrap;html=1;align=center;strokeColor=#b85450;fillColor=#f8cecc;" parent="1" vertex="1">
          <mxGeometry x="370" y="700" width="120" height="60" as="geometry" />
        </mxCell>
        <mxCell id="2XiwG7TkOCnh4Mz1TL8S-57" value="Convoca" style="shape=rhombus;perimeter=rhombusPerimeter;whiteSpace=wrap;html=1;align=center;strokeColor=#b85450;fillColor=#f8cecc;" parent="1" vertex="1">
          <mxGeometry x="190" y="850" width="120" height="60" as="geometry" />
        </mxCell>
        <mxCell id="2XiwG7TkOCnh4Mz1TL8S-58" value="" style="endArrow=none;html=1;rounded=0;entryX=0;entryY=0.5;entryDx=0;entryDy=0;exitX=1;exitY=0.5;exitDx=0;exitDy=0;" parent="1" source="2XiwG7TkOCnh4Mz1TL8S-56" target="2XiwG7TkOCnh4Mz1TL8S-19" edge="1">
          <mxGeometry relative="1" as="geometry">
            <mxPoint x="340" y="480" as="sourcePoint" />
            <mxPoint x="480" y="480" as="targetPoint" />
            <Array as="points">
              <mxPoint x="540" y="730" />
            </Array>
          </mxGeometry>
        </mxCell>
        <mxCell id="2XiwG7TkOCnh4Mz1TL8S-59" value="(1,1)" style="edgeLabel;html=1;align=center;verticalAlign=middle;resizable=0;points=[];fontSize=13;" parent="2XiwG7TkOCnh4Mz1TL8S-58" vertex="1" connectable="0">
          <mxGeometry x="0.0429" y="-1" relative="1" as="geometry">
            <mxPoint as="offset" />
          </mxGeometry>
        </mxCell>
        <mxCell id="2XiwG7TkOCnh4Mz1TL8S-60" value="" style="endArrow=none;html=1;rounded=0;entryX=0.5;entryY=1;entryDx=0;entryDy=0;exitX=0.5;exitY=0;exitDx=0;exitDy=0;" parent="1" source="2XiwG7TkOCnh4Mz1TL8S-31" target="2XiwG7TkOCnh4Mz1TL8S-56" edge="1">
          <mxGeometry relative="1" as="geometry">
            <mxPoint x="350" y="490" as="sourcePoint" />
            <mxPoint x="490" y="490" as="targetPoint" />
          </mxGeometry>
        </mxCell>
        <mxCell id="2XiwG7TkOCnh4Mz1TL8S-61" value="(0,1)" style="edgeLabel;html=1;align=center;verticalAlign=middle;resizable=0;points=[];fontSize=13;" parent="2XiwG7TkOCnh4Mz1TL8S-60" vertex="1" connectable="0">
          <mxGeometry x="0.0429" y="-1" relative="1" as="geometry">
            <mxPoint as="offset" />
          </mxGeometry>
        </mxCell>
        <mxCell id="2XiwG7TkOCnh4Mz1TL8S-62" value="" style="endArrow=none;html=1;rounded=0;entryX=0;entryY=0.5;entryDx=0;entryDy=0;exitX=1;exitY=0.5;exitDx=0;exitDy=0;" parent="1" source="2XiwG7TkOCnh4Mz1TL8S-57" target="2XiwG7TkOCnh4Mz1TL8S-31" edge="1">
          <mxGeometry relative="1" as="geometry">
            <mxPoint x="360" y="500" as="sourcePoint" />
            <mxPoint x="500" y="500" as="targetPoint" />
          </mxGeometry>
        </mxCell>
        <mxCell id="2XiwG7TkOCnh4Mz1TL8S-63" value="(1,1)" style="edgeLabel;html=1;align=center;verticalAlign=middle;resizable=0;points=[];fontSize=13;" parent="2XiwG7TkOCnh4Mz1TL8S-62" vertex="1" connectable="0">
          <mxGeometry x="0.0429" y="-1" relative="1" as="geometry">
            <mxPoint as="offset" />
          </mxGeometry>
        </mxCell>
        <mxCell id="2XiwG7TkOCnh4Mz1TL8S-64" value="" style="endArrow=none;html=1;rounded=0;entryX=0;entryY=0.5;entryDx=0;entryDy=0;exitX=1;exitY=0.5;exitDx=0;exitDy=0;" parent="1" source="2XiwG7TkOCnh4Mz1TL8S-32" target="2XiwG7TkOCnh4Mz1TL8S-57" edge="1">
          <mxGeometry relative="1" as="geometry">
            <mxPoint x="370" y="510" as="sourcePoint" />
            <mxPoint x="510" y="510" as="targetPoint" />
          </mxGeometry>
        </mxCell>
        <mxCell id="2XiwG7TkOCnh4Mz1TL8S-65" value="(0,n)" style="edgeLabel;html=1;align=center;verticalAlign=middle;resizable=0;points=[];fontSize=13;" parent="2XiwG7TkOCnh4Mz1TL8S-64" vertex="1" connectable="0">
          <mxGeometry x="0.0429" y="-1" relative="1" as="geometry">
            <mxPoint as="offset" />
          </mxGeometry>
        </mxCell>
        <mxCell id="2XiwG7TkOCnh4Mz1TL8S-66" value="es Convocado" style="shape=rhombus;perimeter=rhombusPerimeter;whiteSpace=wrap;html=1;align=center;strokeColor=#b85450;fillColor=#f8cecc;" parent="1" vertex="1">
          <mxGeometry x="220" y="570" width="120" height="60" as="geometry" />
        </mxCell>
        <mxCell id="2XiwG7TkOCnh4Mz1TL8S-67" value="" style="endArrow=none;html=1;rounded=0;entryX=0.5;entryY=0;entryDx=0;entryDy=0;exitX=0.5;exitY=1;exitDx=0;exitDy=0;" parent="1" source="2XiwG7TkOCnh4Mz1TL8S-1" target="2XiwG7TkOCnh4Mz1TL8S-66" edge="1">
          <mxGeometry relative="1" as="geometry">
            <mxPoint x="340" y="480" as="sourcePoint" />
            <mxPoint x="480" y="480" as="targetPoint" />
          </mxGeometry>
        </mxCell>
        <mxCell id="2XiwG7TkOCnh4Mz1TL8S-68" value="(1,1)" style="edgeLabel;html=1;align=center;verticalAlign=middle;resizable=0;points=[];fontSize=13;" parent="2XiwG7TkOCnh4Mz1TL8S-67" vertex="1" connectable="0">
          <mxGeometry x="0.0429" y="-1" relative="1" as="geometry">
            <mxPoint as="offset" />
          </mxGeometry>
        </mxCell>
        <mxCell id="2XiwG7TkOCnh4Mz1TL8S-69" value="" style="endArrow=none;html=1;rounded=0;entryX=0.5;entryY=0;entryDx=0;entryDy=0;exitX=0.5;exitY=1;exitDx=0;exitDy=0;" parent="1" source="2XiwG7TkOCnh4Mz1TL8S-66" target="2XiwG7TkOCnh4Mz1TL8S-32" edge="1">
          <mxGeometry relative="1" as="geometry">
            <mxPoint x="590" y="585" as="sourcePoint" />
            <mxPoint x="690" y="420" as="targetPoint" />
            <Array as="points">
              <mxPoint x="280" y="780" />
              <mxPoint x="60" y="780" />
            </Array>
          </mxGeometry>
        </mxCell>
        <mxCell id="2XiwG7TkOCnh4Mz1TL8S-70" value="(0,n)" style="edgeLabel;html=1;align=center;verticalAlign=middle;resizable=0;points=[];fontSize=13;" parent="2XiwG7TkOCnh4Mz1TL8S-69" vertex="1" connectable="0">
          <mxGeometry x="0.0429" y="-1" relative="1" as="geometry">
            <mxPoint x="85" y="-99" as="offset" />
          </mxGeometry>
        </mxCell>
        <mxCell id="2XiwG7TkOCnh4Mz1TL8S-71" value="id" style="ellipse;whiteSpace=wrap;html=1;align=center;fontStyle=4;strokeColor=#00CC00;" parent="1" vertex="1">
          <mxGeometry x="260" y="960" width="100" height="40" as="geometry" />
        </mxCell>
        <mxCell id="2XiwG7TkOCnh4Mz1TL8S-72" value="enlace" style="ellipse;whiteSpace=wrap;html=1;align=center;strokeColor=#00CC00;" parent="1" vertex="1">
          <mxGeometry x="380" y="960" width="100" height="40" as="geometry" />
        </mxCell>
        <mxCell id="2XiwG7TkOCnh4Mz1TL8S-73" value="observaciones" style="ellipse;whiteSpace=wrap;html=1;align=center;strokeColor=#00CC00;" parent="1" vertex="1">
          <mxGeometry x="500" y="960" width="100" height="40" as="geometry" />
        </mxCell>
        <mxCell id="2XiwG7TkOCnh4Mz1TL8S-74" value="" style="endArrow=none;html=1;rounded=0;entryX=0.5;entryY=0;entryDx=0;entryDy=0;exitX=0.5;exitY=1;exitDx=0;exitDy=0;" parent="1" source="2XiwG7TkOCnh4Mz1TL8S-31" target="2XiwG7TkOCnh4Mz1TL8S-71" edge="1">
          <mxGeometry relative="1" as="geometry">
            <mxPoint x="540" y="605" as="sourcePoint" />
            <mxPoint x="660" y="796" as="targetPoint" />
          </mxGeometry>
        </mxCell>
        <mxCell id="2XiwG7TkOCnh4Mz1TL8S-75" value="" style="endArrow=none;html=1;rounded=0;entryX=0.5;entryY=0;entryDx=0;entryDy=0;exitX=0.5;exitY=1;exitDx=0;exitDy=0;" parent="1" source="2XiwG7TkOCnh4Mz1TL8S-31" target="2XiwG7TkOCnh4Mz1TL8S-72" edge="1">
          <mxGeometry relative="1" as="geometry">
            <mxPoint x="550" y="615" as="sourcePoint" />
            <mxPoint x="670" y="806" as="targetPoint" />
          </mxGeometry>
        </mxCell>
        <mxCell id="2XiwG7TkOCnh4Mz1TL8S-76" value="" style="endArrow=none;html=1;rounded=0;entryX=0.5;entryY=0;entryDx=0;entryDy=0;exitX=0.5;exitY=1;exitDx=0;exitDy=0;" parent="1" source="2XiwG7TkOCnh4Mz1TL8S-31" target="2XiwG7TkOCnh4Mz1TL8S-73" edge="1">
          <mxGeometry relative="1" as="geometry">
            <mxPoint x="560" y="625" as="sourcePoint" />
            <mxPoint x="680" y="816" as="targetPoint" />
          </mxGeometry>
        </mxCell>
        <mxCell id="l_deCliqmL3L20pKdu2R-1" value="diaSemana" style="ellipse;whiteSpace=wrap;html=1;align=center;strokeColor=#00CC00;" parent="1" vertex="1">
          <mxGeometry x="120" y="30" width="100" height="40" as="geometry" />
        </mxCell>
        <mxCell id="l_deCliqmL3L20pKdu2R-2" value="" style="endArrow=none;html=1;rounded=0;exitX=0.5;exitY=1;exitDx=0;exitDy=0;entryX=0.5;entryY=0;entryDx=0;entryDy=0;" parent="1" source="l_deCliqmL3L20pKdu2R-1" target="2XiwG7TkOCnh4Mz1TL8S-38" edge="1">
          <mxGeometry relative="1" as="geometry">
            <mxPoint x="70" y="80" as="sourcePoint" />
            <mxPoint x="240" y="140" as="targetPoint" />
          </mxGeometry>
        </mxCell>
        <mxCell id="Ft8gjBpIWmNSx7Q3tXxU-1" value="duracionReserva" style="ellipse;whiteSpace=wrap;html=1;align=center;strokeColor=#00CC00;" parent="1" vertex="1">
          <mxGeometry x="710" y="30" width="110" height="40" as="geometry" />
        </mxCell>
        <mxCell id="Ft8gjBpIWmNSx7Q3tXxU-2" value="" style="endArrow=none;html=1;rounded=0;exitX=0.5;exitY=1;exitDx=0;exitDy=0;entryX=0.5;entryY=0;entryDx=0;entryDy=0;" parent="1" source="Ft8gjBpIWmNSx7Q3tXxU-1" target="2XiwG7TkOCnh4Mz1TL8S-18" edge="1">
          <mxGeometry relative="1" as="geometry">
            <mxPoint x="690" y="100" as="sourcePoint" />
            <mxPoint x="670" y="140" as="targetPoint" />
          </mxGeometry>
        </mxCell>
      </root>
    </mxGraphModel>
  </diagram>
  <diagram id="nrB0dKyq48wm2zls5pRJ" name="Relacional">
    <mxGraphModel dx="1434" dy="836" grid="1" gridSize="10" guides="1" tooltips="1" connect="1" arrows="1" fold="1" page="1" pageScale="1" pageWidth="827" pageHeight="1169" math="0" shadow="0">
      <root>
        <mxCell id="0" />
        <mxCell id="1" parent="0" />
        <mxCell id="zAhzbYTXy8An6bl5hOJK-1" value="Usuario" style="shape=table;startSize=30;container=1;collapsible=1;childLayout=tableLayout;fixedRows=1;rowLines=0;fontStyle=1;align=center;resizeLast=1;html=1;strokeWidth=2;strokeColor=#D6B656;fillColor=#FFF2CC;" parent="1" vertex="1">
          <mxGeometry x="124" y="280" width="180" height="270" as="geometry">
            <mxRectangle x="110" y="270" width="90" height="30" as="alternateBounds" />
          </mxGeometry>
        </mxCell>
        <mxCell id="zAhzbYTXy8An6bl5hOJK-2" value="" style="shape=tableRow;horizontal=0;startSize=0;swimlaneHead=0;swimlaneBody=0;fillColor=none;collapsible=0;dropTarget=0;points=[[0,0.5],[1,0.5]];portConstraint=eastwest;top=0;left=0;right=0;bottom=1;" parent="zAhzbYTXy8An6bl5hOJK-1" vertex="1">
          <mxGeometry y="30" width="180" height="30" as="geometry" />
        </mxCell>
        <mxCell id="zAhzbYTXy8An6bl5hOJK-3" value="PK" style="shape=partialRectangle;connectable=0;fillColor=none;top=0;left=0;bottom=0;right=0;fontStyle=1;overflow=hidden;whiteSpace=wrap;html=1;" parent="zAhzbYTXy8An6bl5hOJK-2" vertex="1">
          <mxGeometry width="30" height="30" as="geometry">
            <mxRectangle width="30" height="30" as="alternateBounds" />
          </mxGeometry>
        </mxCell>
        <mxCell id="zAhzbYTXy8An6bl5hOJK-4" value="id" style="shape=partialRectangle;connectable=0;fillColor=none;top=0;left=0;bottom=0;right=0;align=left;spacingLeft=6;fontStyle=5;overflow=hidden;whiteSpace=wrap;html=1;" parent="zAhzbYTXy8An6bl5hOJK-2" vertex="1">
          <mxGeometry x="30" width="150" height="30" as="geometry">
            <mxRectangle width="150" height="30" as="alternateBounds" />
          </mxGeometry>
        </mxCell>
        <mxCell id="zAhzbYTXy8An6bl5hOJK-5" value="" style="shape=tableRow;horizontal=0;startSize=0;swimlaneHead=0;swimlaneBody=0;fillColor=none;collapsible=0;dropTarget=0;points=[[0,0.5],[1,0.5]];portConstraint=eastwest;top=0;left=0;right=0;bottom=0;" parent="zAhzbYTXy8An6bl5hOJK-1" vertex="1">
          <mxGeometry y="60" width="180" height="30" as="geometry" />
        </mxCell>
        <mxCell id="zAhzbYTXy8An6bl5hOJK-6" value="" style="shape=partialRectangle;connectable=0;fillColor=none;top=0;left=0;bottom=0;right=0;editable=1;overflow=hidden;whiteSpace=wrap;html=1;" parent="zAhzbYTXy8An6bl5hOJK-5" vertex="1">
          <mxGeometry width="30" height="30" as="geometry">
            <mxRectangle width="30" height="30" as="alternateBounds" />
          </mxGeometry>
        </mxCell>
        <mxCell id="zAhzbYTXy8An6bl5hOJK-7" value="nombre" style="shape=partialRectangle;connectable=0;fillColor=none;top=0;left=0;bottom=0;right=0;align=left;spacingLeft=6;overflow=hidden;whiteSpace=wrap;html=1;" parent="zAhzbYTXy8An6bl5hOJK-5" vertex="1">
          <mxGeometry x="30" width="150" height="30" as="geometry">
            <mxRectangle width="150" height="30" as="alternateBounds" />
          </mxGeometry>
        </mxCell>
        <mxCell id="zAhzbYTXy8An6bl5hOJK-8" value="" style="shape=tableRow;horizontal=0;startSize=0;swimlaneHead=0;swimlaneBody=0;fillColor=none;collapsible=0;dropTarget=0;points=[[0,0.5],[1,0.5]];portConstraint=eastwest;top=0;left=0;right=0;bottom=0;" parent="zAhzbYTXy8An6bl5hOJK-1" vertex="1">
          <mxGeometry y="90" width="180" height="30" as="geometry" />
        </mxCell>
        <mxCell id="zAhzbYTXy8An6bl5hOJK-9" value="" style="shape=partialRectangle;connectable=0;fillColor=none;top=0;left=0;bottom=0;right=0;editable=1;overflow=hidden;whiteSpace=wrap;html=1;" parent="zAhzbYTXy8An6bl5hOJK-8" vertex="1">
          <mxGeometry width="30" height="30" as="geometry">
            <mxRectangle width="30" height="30" as="alternateBounds" />
          </mxGeometry>
        </mxCell>
        <mxCell id="zAhzbYTXy8An6bl5hOJK-10" value="apellidos" style="shape=partialRectangle;connectable=0;fillColor=none;top=0;left=0;bottom=0;right=0;align=left;spacingLeft=6;overflow=hidden;whiteSpace=wrap;html=1;" parent="zAhzbYTXy8An6bl5hOJK-8" vertex="1">
          <mxGeometry x="30" width="150" height="30" as="geometry">
            <mxRectangle width="150" height="30" as="alternateBounds" />
          </mxGeometry>
        </mxCell>
        <mxCell id="zAhzbYTXy8An6bl5hOJK-24" style="shape=tableRow;horizontal=0;startSize=0;swimlaneHead=0;swimlaneBody=0;fillColor=none;collapsible=0;dropTarget=0;points=[[0,0.5],[1,0.5]];portConstraint=eastwest;top=0;left=0;right=0;bottom=0;" parent="zAhzbYTXy8An6bl5hOJK-1" vertex="1">
          <mxGeometry y="120" width="180" height="30" as="geometry" />
        </mxCell>
        <mxCell id="zAhzbYTXy8An6bl5hOJK-25" style="shape=partialRectangle;connectable=0;fillColor=none;top=0;left=0;bottom=0;right=0;editable=1;overflow=hidden;whiteSpace=wrap;html=1;" parent="zAhzbYTXy8An6bl5hOJK-24" vertex="1">
          <mxGeometry width="30" height="30" as="geometry">
            <mxRectangle width="30" height="30" as="alternateBounds" />
          </mxGeometry>
        </mxCell>
        <mxCell id="zAhzbYTXy8An6bl5hOJK-26" value="correo" style="shape=partialRectangle;connectable=0;fillColor=none;top=0;left=0;bottom=0;right=0;align=left;spacingLeft=6;overflow=hidden;whiteSpace=wrap;html=1;" parent="zAhzbYTXy8An6bl5hOJK-24" vertex="1">
          <mxGeometry x="30" width="150" height="30" as="geometry">
            <mxRectangle width="150" height="30" as="alternateBounds" />
          </mxGeometry>
        </mxCell>
        <mxCell id="zAhzbYTXy8An6bl5hOJK-21" style="shape=tableRow;horizontal=0;startSize=0;swimlaneHead=0;swimlaneBody=0;fillColor=none;collapsible=0;dropTarget=0;points=[[0,0.5],[1,0.5]];portConstraint=eastwest;top=0;left=0;right=0;bottom=0;" parent="zAhzbYTXy8An6bl5hOJK-1" vertex="1">
          <mxGeometry y="150" width="180" height="30" as="geometry" />
        </mxCell>
        <mxCell id="zAhzbYTXy8An6bl5hOJK-22" style="shape=partialRectangle;connectable=0;fillColor=none;top=0;left=0;bottom=0;right=0;editable=1;overflow=hidden;whiteSpace=wrap;html=1;" parent="zAhzbYTXy8An6bl5hOJK-21" vertex="1">
          <mxGeometry width="30" height="30" as="geometry">
            <mxRectangle width="30" height="30" as="alternateBounds" />
          </mxGeometry>
        </mxCell>
        <mxCell id="zAhzbYTXy8An6bl5hOJK-23" value="password" style="shape=partialRectangle;connectable=0;fillColor=none;top=0;left=0;bottom=0;right=0;align=left;spacingLeft=6;overflow=hidden;whiteSpace=wrap;html=1;" parent="zAhzbYTXy8An6bl5hOJK-21" vertex="1">
          <mxGeometry x="30" width="150" height="30" as="geometry">
            <mxRectangle width="150" height="30" as="alternateBounds" />
          </mxGeometry>
        </mxCell>
        <mxCell id="zAhzbYTXy8An6bl5hOJK-18" style="shape=tableRow;horizontal=0;startSize=0;swimlaneHead=0;swimlaneBody=0;fillColor=none;collapsible=0;dropTarget=0;points=[[0,0.5],[1,0.5]];portConstraint=eastwest;top=0;left=0;right=0;bottom=0;" parent="zAhzbYTXy8An6bl5hOJK-1" vertex="1">
          <mxGeometry y="180" width="180" height="30" as="geometry" />
        </mxCell>
        <mxCell id="zAhzbYTXy8An6bl5hOJK-19" style="shape=partialRectangle;connectable=0;fillColor=none;top=0;left=0;bottom=0;right=0;editable=1;overflow=hidden;whiteSpace=wrap;html=1;" parent="zAhzbYTXy8An6bl5hOJK-18" vertex="1">
          <mxGeometry width="30" height="30" as="geometry">
            <mxRectangle width="30" height="30" as="alternateBounds" />
          </mxGeometry>
        </mxCell>
        <mxCell id="zAhzbYTXy8An6bl5hOJK-20" value="telefono" style="shape=partialRectangle;connectable=0;fillColor=none;top=0;left=0;bottom=0;right=0;align=left;spacingLeft=6;overflow=hidden;whiteSpace=wrap;html=1;" parent="zAhzbYTXy8An6bl5hOJK-18" vertex="1">
          <mxGeometry x="30" width="150" height="30" as="geometry">
            <mxRectangle width="150" height="30" as="alternateBounds" />
          </mxGeometry>
        </mxCell>
        <mxCell id="zAhzbYTXy8An6bl5hOJK-15" style="shape=tableRow;horizontal=0;startSize=0;swimlaneHead=0;swimlaneBody=0;fillColor=none;collapsible=0;dropTarget=0;points=[[0,0.5],[1,0.5]];portConstraint=eastwest;top=0;left=0;right=0;bottom=0;" parent="zAhzbYTXy8An6bl5hOJK-1" vertex="1">
          <mxGeometry y="210" width="180" height="30" as="geometry" />
        </mxCell>
        <mxCell id="zAhzbYTXy8An6bl5hOJK-16" style="shape=partialRectangle;connectable=0;fillColor=none;top=0;left=0;bottom=0;right=0;editable=1;overflow=hidden;whiteSpace=wrap;html=1;" parent="zAhzbYTXy8An6bl5hOJK-15" vertex="1">
          <mxGeometry width="30" height="30" as="geometry">
            <mxRectangle width="30" height="30" as="alternateBounds" />
          </mxGeometry>
        </mxCell>
        <mxCell id="zAhzbYTXy8An6bl5hOJK-17" value="administrador" style="shape=partialRectangle;connectable=0;fillColor=none;top=0;left=0;bottom=0;right=0;align=left;spacingLeft=6;overflow=hidden;whiteSpace=wrap;html=1;" parent="zAhzbYTXy8An6bl5hOJK-15" vertex="1">
          <mxGeometry x="30" width="150" height="30" as="geometry">
            <mxRectangle width="150" height="30" as="alternateBounds" />
          </mxGeometry>
        </mxCell>
        <mxCell id="zAhzbYTXy8An6bl5hOJK-11" value="" style="shape=tableRow;horizontal=0;startSize=0;swimlaneHead=0;swimlaneBody=0;fillColor=none;collapsible=0;dropTarget=0;points=[[0,0.5],[1,0.5]];portConstraint=eastwest;top=0;left=0;right=0;bottom=0;" parent="zAhzbYTXy8An6bl5hOJK-1" vertex="1">
          <mxGeometry y="240" width="180" height="30" as="geometry" />
        </mxCell>
        <mxCell id="zAhzbYTXy8An6bl5hOJK-12" value="" style="shape=partialRectangle;connectable=0;fillColor=none;top=0;left=0;bottom=0;right=0;editable=1;overflow=hidden;whiteSpace=wrap;html=1;" parent="zAhzbYTXy8An6bl5hOJK-11" vertex="1">
          <mxGeometry width="30" height="30" as="geometry">
            <mxRectangle width="30" height="30" as="alternateBounds" />
          </mxGeometry>
        </mxCell>
        <mxCell id="zAhzbYTXy8An6bl5hOJK-13" value="bloqueado" style="shape=partialRectangle;connectable=0;fillColor=none;top=0;left=0;bottom=0;right=0;align=left;spacingLeft=6;overflow=hidden;whiteSpace=wrap;html=1;" parent="zAhzbYTXy8An6bl5hOJK-11" vertex="1">
          <mxGeometry x="30" width="150" height="30" as="geometry">
            <mxRectangle width="150" height="30" as="alternateBounds" />
          </mxGeometry>
        </mxCell>
        <mxCell id="zAhzbYTXy8An6bl5hOJK-27" value="Establecimiento" style="shape=table;startSize=30;container=1;collapsible=1;childLayout=tableLayout;fixedRows=1;rowLines=0;fontStyle=1;align=center;resizeLast=1;html=1;strokeColor=#D6B656;strokeWidth=2;fillColor=#FFF2CC;" parent="1" vertex="1">
          <mxGeometry x="504" y="70" width="180" height="150" as="geometry" />
        </mxCell>
        <mxCell id="zAhzbYTXy8An6bl5hOJK-28" value="" style="shape=tableRow;horizontal=0;startSize=0;swimlaneHead=0;swimlaneBody=0;fillColor=none;collapsible=0;dropTarget=0;points=[[0,0.5],[1,0.5]];portConstraint=eastwest;top=0;left=0;right=0;bottom=1;" parent="zAhzbYTXy8An6bl5hOJK-27" vertex="1">
          <mxGeometry y="30" width="180" height="30" as="geometry" />
        </mxCell>
        <mxCell id="zAhzbYTXy8An6bl5hOJK-29" value="PK" style="shape=partialRectangle;connectable=0;fillColor=none;top=0;left=0;bottom=0;right=0;fontStyle=1;overflow=hidden;whiteSpace=wrap;html=1;" parent="zAhzbYTXy8An6bl5hOJK-28" vertex="1">
          <mxGeometry width="30" height="30" as="geometry">
            <mxRectangle width="30" height="30" as="alternateBounds" />
          </mxGeometry>
        </mxCell>
        <mxCell id="zAhzbYTXy8An6bl5hOJK-30" value="id" style="shape=partialRectangle;connectable=0;fillColor=none;top=0;left=0;bottom=0;right=0;align=left;spacingLeft=6;fontStyle=5;overflow=hidden;whiteSpace=wrap;html=1;" parent="zAhzbYTXy8An6bl5hOJK-28" vertex="1">
          <mxGeometry x="30" width="150" height="30" as="geometry">
            <mxRectangle width="150" height="30" as="alternateBounds" />
          </mxGeometry>
        </mxCell>
        <mxCell id="zAhzbYTXy8An6bl5hOJK-31" value="" style="shape=tableRow;horizontal=0;startSize=0;swimlaneHead=0;swimlaneBody=0;fillColor=none;collapsible=0;dropTarget=0;points=[[0,0.5],[1,0.5]];portConstraint=eastwest;top=0;left=0;right=0;bottom=0;" parent="zAhzbYTXy8An6bl5hOJK-27" vertex="1">
          <mxGeometry y="60" width="180" height="30" as="geometry" />
        </mxCell>
        <mxCell id="zAhzbYTXy8An6bl5hOJK-32" value="" style="shape=partialRectangle;connectable=0;fillColor=none;top=0;left=0;bottom=0;right=0;editable=1;overflow=hidden;whiteSpace=wrap;html=1;" parent="zAhzbYTXy8An6bl5hOJK-31" vertex="1">
          <mxGeometry width="30" height="30" as="geometry">
            <mxRectangle width="30" height="30" as="alternateBounds" />
          </mxGeometry>
        </mxCell>
        <mxCell id="zAhzbYTXy8An6bl5hOJK-33" value="nombre" style="shape=partialRectangle;connectable=0;fillColor=none;top=0;left=0;bottom=0;right=0;align=left;spacingLeft=6;overflow=hidden;whiteSpace=wrap;html=1;" parent="zAhzbYTXy8An6bl5hOJK-31" vertex="1">
          <mxGeometry x="30" width="150" height="30" as="geometry">
            <mxRectangle width="150" height="30" as="alternateBounds" />
          </mxGeometry>
        </mxCell>
        <mxCell id="zAhzbYTXy8An6bl5hOJK-34" value="" style="shape=tableRow;horizontal=0;startSize=0;swimlaneHead=0;swimlaneBody=0;fillColor=none;collapsible=0;dropTarget=0;points=[[0,0.5],[1,0.5]];portConstraint=eastwest;top=0;left=0;right=0;bottom=0;" parent="zAhzbYTXy8An6bl5hOJK-27" vertex="1">
          <mxGeometry y="90" width="180" height="30" as="geometry" />
        </mxCell>
        <mxCell id="zAhzbYTXy8An6bl5hOJK-35" value="" style="shape=partialRectangle;connectable=0;fillColor=none;top=0;left=0;bottom=0;right=0;editable=1;overflow=hidden;whiteSpace=wrap;html=1;" parent="zAhzbYTXy8An6bl5hOJK-34" vertex="1">
          <mxGeometry width="30" height="30" as="geometry">
            <mxRectangle width="30" height="30" as="alternateBounds" />
          </mxGeometry>
        </mxCell>
        <mxCell id="zAhzbYTXy8An6bl5hOJK-36" value="aforo" style="shape=partialRectangle;connectable=0;fillColor=none;top=0;left=0;bottom=0;right=0;align=left;spacingLeft=6;overflow=hidden;whiteSpace=wrap;html=1;" parent="zAhzbYTXy8An6bl5hOJK-34" vertex="1">
          <mxGeometry x="30" width="150" height="30" as="geometry">
            <mxRectangle width="150" height="30" as="alternateBounds" />
          </mxGeometry>
        </mxCell>
        <mxCell id="t8ZXQInkTCXuZ-NyNM5g-1" style="shape=tableRow;horizontal=0;startSize=0;swimlaneHead=0;swimlaneBody=0;fillColor=none;collapsible=0;dropTarget=0;points=[[0,0.5],[1,0.5]];portConstraint=eastwest;top=0;left=0;right=0;bottom=0;" parent="zAhzbYTXy8An6bl5hOJK-27" vertex="1">
          <mxGeometry y="120" width="180" height="30" as="geometry" />
        </mxCell>
        <mxCell id="t8ZXQInkTCXuZ-NyNM5g-2" style="shape=partialRectangle;connectable=0;fillColor=none;top=0;left=0;bottom=0;right=0;editable=1;overflow=hidden;whiteSpace=wrap;html=1;" parent="t8ZXQInkTCXuZ-NyNM5g-1" vertex="1">
          <mxGeometry width="30" height="30" as="geometry">
            <mxRectangle width="30" height="30" as="alternateBounds" />
          </mxGeometry>
        </mxCell>
        <mxCell id="t8ZXQInkTCXuZ-NyNM5g-3" value="duracionReserva" style="shape=partialRectangle;connectable=0;fillColor=none;top=0;left=0;bottom=0;right=0;align=left;spacingLeft=6;overflow=hidden;whiteSpace=wrap;html=1;" parent="t8ZXQInkTCXuZ-NyNM5g-1" vertex="1">
          <mxGeometry x="30" width="150" height="30" as="geometry">
            <mxRectangle width="150" height="30" as="alternateBounds" />
          </mxGeometry>
        </mxCell>
        <mxCell id="MCKHkdZ45Ho1QGfljf_c-76" style="edgeStyle=orthogonalEdgeStyle;rounded=0;orthogonalLoop=1;jettySize=auto;html=1;startArrow=ERmandOne;startFill=0;endArrow=ERzeroToOne;endFill=0;entryX=0.5;entryY=0;entryDx=0;entryDy=0;strokeWidth=2;strokeColor=#CC6600;" parent="1" source="zAhzbYTXy8An6bl5hOJK-40" target="MCKHkdZ45Ho1QGfljf_c-36" edge="1">
          <mxGeometry relative="1" as="geometry">
            <mxPoint x="674" y="500" as="targetPoint" />
          </mxGeometry>
        </mxCell>
        <mxCell id="zAhzbYTXy8An6bl5hOJK-40" value="Reserva" style="shape=table;startSize=30;container=1;collapsible=1;childLayout=tableLayout;fixedRows=1;rowLines=0;fontStyle=1;align=center;resizeLast=1;html=1;strokeColor=#D6B656;strokeWidth=2;fillColor=#FFF2CC;" parent="1" vertex="1">
          <mxGeometry x="504" y="250" width="180" height="180" as="geometry" />
        </mxCell>
        <mxCell id="zAhzbYTXy8An6bl5hOJK-41" value="" style="shape=tableRow;horizontal=0;startSize=0;swimlaneHead=0;swimlaneBody=0;fillColor=none;collapsible=0;dropTarget=0;points=[[0,0.5],[1,0.5]];portConstraint=eastwest;top=0;left=0;right=0;bottom=1;" parent="zAhzbYTXy8An6bl5hOJK-40" vertex="1">
          <mxGeometry y="30" width="180" height="30" as="geometry" />
        </mxCell>
        <mxCell id="zAhzbYTXy8An6bl5hOJK-42" value="PK" style="shape=partialRectangle;connectable=0;fillColor=none;top=0;left=0;bottom=0;right=0;fontStyle=1;overflow=hidden;whiteSpace=wrap;html=1;" parent="zAhzbYTXy8An6bl5hOJK-41" vertex="1">
          <mxGeometry width="30" height="30" as="geometry">
            <mxRectangle width="30" height="30" as="alternateBounds" />
          </mxGeometry>
        </mxCell>
        <mxCell id="zAhzbYTXy8An6bl5hOJK-43" value="id" style="shape=partialRectangle;connectable=0;fillColor=none;top=0;left=0;bottom=0;right=0;align=left;spacingLeft=6;fontStyle=5;overflow=hidden;whiteSpace=wrap;html=1;" parent="zAhzbYTXy8An6bl5hOJK-41" vertex="1">
          <mxGeometry x="30" width="150" height="30" as="geometry">
            <mxRectangle width="150" height="30" as="alternateBounds" />
          </mxGeometry>
        </mxCell>
        <mxCell id="MCKHkdZ45Ho1QGfljf_c-14" style="shape=tableRow;horizontal=0;startSize=0;swimlaneHead=0;swimlaneBody=0;fillColor=none;collapsible=0;dropTarget=0;points=[[0,0.5],[1,0.5]];portConstraint=eastwest;top=0;left=0;right=0;bottom=0;" parent="zAhzbYTXy8An6bl5hOJK-40" vertex="1">
          <mxGeometry y="60" width="180" height="30" as="geometry" />
        </mxCell>
        <mxCell id="MCKHkdZ45Ho1QGfljf_c-15" value="FK" style="shape=partialRectangle;connectable=0;fillColor=none;top=0;left=0;bottom=0;right=0;editable=1;overflow=hidden;whiteSpace=wrap;html=1;" parent="MCKHkdZ45Ho1QGfljf_c-14" vertex="1">
          <mxGeometry width="30" height="30" as="geometry">
            <mxRectangle width="30" height="30" as="alternateBounds" />
          </mxGeometry>
        </mxCell>
        <mxCell id="MCKHkdZ45Ho1QGfljf_c-16" value="idUsuario" style="shape=partialRectangle;connectable=0;fillColor=none;top=0;left=0;bottom=0;right=0;align=left;spacingLeft=6;overflow=hidden;whiteSpace=wrap;html=1;" parent="MCKHkdZ45Ho1QGfljf_c-14" vertex="1">
          <mxGeometry x="30" width="150" height="30" as="geometry">
            <mxRectangle width="150" height="30" as="alternateBounds" />
          </mxGeometry>
        </mxCell>
        <mxCell id="MCKHkdZ45Ho1QGfljf_c-17" style="shape=tableRow;horizontal=0;startSize=0;swimlaneHead=0;swimlaneBody=0;fillColor=none;collapsible=0;dropTarget=0;points=[[0,0.5],[1,0.5]];portConstraint=eastwest;top=0;left=0;right=0;bottom=0;" parent="zAhzbYTXy8An6bl5hOJK-40" vertex="1">
          <mxGeometry y="90" width="180" height="30" as="geometry" />
        </mxCell>
        <mxCell id="MCKHkdZ45Ho1QGfljf_c-18" value="FK" style="shape=partialRectangle;connectable=0;fillColor=none;top=0;left=0;bottom=0;right=0;editable=1;overflow=hidden;whiteSpace=wrap;html=1;" parent="MCKHkdZ45Ho1QGfljf_c-17" vertex="1">
          <mxGeometry width="30" height="30" as="geometry">
            <mxRectangle width="30" height="30" as="alternateBounds" />
          </mxGeometry>
        </mxCell>
        <mxCell id="MCKHkdZ45Ho1QGfljf_c-19" value="idEstablecimiento" style="shape=partialRectangle;connectable=0;fillColor=none;top=0;left=0;bottom=0;right=0;align=left;spacingLeft=6;overflow=hidden;whiteSpace=wrap;html=1;" parent="MCKHkdZ45Ho1QGfljf_c-17" vertex="1">
          <mxGeometry x="30" width="150" height="30" as="geometry">
            <mxRectangle width="150" height="30" as="alternateBounds" />
          </mxGeometry>
        </mxCell>
        <mxCell id="zAhzbYTXy8An6bl5hOJK-44" value="" style="shape=tableRow;horizontal=0;startSize=0;swimlaneHead=0;swimlaneBody=0;fillColor=none;collapsible=0;dropTarget=0;points=[[0,0.5],[1,0.5]];portConstraint=eastwest;top=0;left=0;right=0;bottom=0;" parent="zAhzbYTXy8An6bl5hOJK-40" vertex="1">
          <mxGeometry y="120" width="180" height="30" as="geometry" />
        </mxCell>
        <mxCell id="zAhzbYTXy8An6bl5hOJK-45" value="" style="shape=partialRectangle;connectable=0;fillColor=none;top=0;left=0;bottom=0;right=0;editable=1;overflow=hidden;whiteSpace=wrap;html=1;" parent="zAhzbYTXy8An6bl5hOJK-44" vertex="1">
          <mxGeometry width="30" height="30" as="geometry">
            <mxRectangle width="30" height="30" as="alternateBounds" />
          </mxGeometry>
        </mxCell>
        <mxCell id="zAhzbYTXy8An6bl5hOJK-46" value="fechaHoraReserva" style="shape=partialRectangle;connectable=0;fillColor=none;top=0;left=0;bottom=0;right=0;align=left;spacingLeft=6;overflow=hidden;whiteSpace=wrap;html=1;" parent="zAhzbYTXy8An6bl5hOJK-44" vertex="1">
          <mxGeometry x="30" width="150" height="30" as="geometry">
            <mxRectangle width="150" height="30" as="alternateBounds" />
          </mxGeometry>
        </mxCell>
        <mxCell id="zAhzbYTXy8An6bl5hOJK-47" value="" style="shape=tableRow;horizontal=0;startSize=0;swimlaneHead=0;swimlaneBody=0;fillColor=none;collapsible=0;dropTarget=0;points=[[0,0.5],[1,0.5]];portConstraint=eastwest;top=0;left=0;right=0;bottom=0;" parent="zAhzbYTXy8An6bl5hOJK-40" vertex="1">
          <mxGeometry y="150" width="180" height="30" as="geometry" />
        </mxCell>
        <mxCell id="zAhzbYTXy8An6bl5hOJK-48" value="" style="shape=partialRectangle;connectable=0;fillColor=none;top=0;left=0;bottom=0;right=0;editable=1;overflow=hidden;whiteSpace=wrap;html=1;" parent="zAhzbYTXy8An6bl5hOJK-47" vertex="1">
          <mxGeometry width="30" height="30" as="geometry">
            <mxRectangle width="30" height="30" as="alternateBounds" />
          </mxGeometry>
        </mxCell>
        <mxCell id="zAhzbYTXy8An6bl5hOJK-49" value="horaFin" style="shape=partialRectangle;connectable=0;fillColor=none;top=0;left=0;bottom=0;right=0;align=left;spacingLeft=6;overflow=hidden;whiteSpace=wrap;html=1;" parent="zAhzbYTXy8An6bl5hOJK-47" vertex="1">
          <mxGeometry x="30" width="150" height="30" as="geometry">
            <mxRectangle width="150" height="30" as="alternateBounds" />
          </mxGeometry>
        </mxCell>
        <mxCell id="qr4j-jbYs4nuFdvLoDsC-1" value="FranjaHoraria" style="shape=table;startSize=30;container=1;collapsible=1;childLayout=tableLayout;fixedRows=1;rowLines=0;fontStyle=1;align=center;resizeLast=1;html=1;strokeColor=#D6B656;strokeWidth=2;fillColor=#FFF2CC;" parent="1" vertex="1">
          <mxGeometry x="124" y="40" width="180" height="150" as="geometry" />
        </mxCell>
        <mxCell id="qr4j-jbYs4nuFdvLoDsC-2" value="" style="shape=tableRow;horizontal=0;startSize=0;swimlaneHead=0;swimlaneBody=0;fillColor=none;collapsible=0;dropTarget=0;points=[[0,0.5],[1,0.5]];portConstraint=eastwest;top=0;left=0;right=0;bottom=1;" parent="qr4j-jbYs4nuFdvLoDsC-1" vertex="1">
          <mxGeometry y="30" width="180" height="30" as="geometry" />
        </mxCell>
        <mxCell id="qr4j-jbYs4nuFdvLoDsC-3" value="PK" style="shape=partialRectangle;connectable=0;fillColor=none;top=0;left=0;bottom=0;right=0;fontStyle=1;overflow=hidden;whiteSpace=wrap;html=1;" parent="qr4j-jbYs4nuFdvLoDsC-2" vertex="1">
          <mxGeometry width="30" height="30" as="geometry">
            <mxRectangle width="30" height="30" as="alternateBounds" />
          </mxGeometry>
        </mxCell>
        <mxCell id="qr4j-jbYs4nuFdvLoDsC-4" value="id" style="shape=partialRectangle;connectable=0;fillColor=none;top=0;left=0;bottom=0;right=0;align=left;spacingLeft=6;fontStyle=5;overflow=hidden;whiteSpace=wrap;html=1;" parent="qr4j-jbYs4nuFdvLoDsC-2" vertex="1">
          <mxGeometry x="30" width="150" height="30" as="geometry">
            <mxRectangle width="150" height="30" as="alternateBounds" />
          </mxGeometry>
        </mxCell>
        <mxCell id="MCKHkdZ45Ho1QGfljf_c-11" style="shape=tableRow;horizontal=0;startSize=0;swimlaneHead=0;swimlaneBody=0;fillColor=none;collapsible=0;dropTarget=0;points=[[0,0.5],[1,0.5]];portConstraint=eastwest;top=0;left=0;right=0;bottom=0;" parent="qr4j-jbYs4nuFdvLoDsC-1" vertex="1">
          <mxGeometry y="60" width="180" height="30" as="geometry" />
        </mxCell>
        <mxCell id="MCKHkdZ45Ho1QGfljf_c-12" value="FK" style="shape=partialRectangle;connectable=0;fillColor=none;top=0;left=0;bottom=0;right=0;editable=1;overflow=hidden;whiteSpace=wrap;html=1;" parent="MCKHkdZ45Ho1QGfljf_c-11" vertex="1">
          <mxGeometry width="30" height="30" as="geometry">
            <mxRectangle width="30" height="30" as="alternateBounds" />
          </mxGeometry>
        </mxCell>
        <mxCell id="MCKHkdZ45Ho1QGfljf_c-13" value="idEstablecimiento" style="shape=partialRectangle;connectable=0;fillColor=none;top=0;left=0;bottom=0;right=0;align=left;spacingLeft=6;overflow=hidden;whiteSpace=wrap;html=1;" parent="MCKHkdZ45Ho1QGfljf_c-11" vertex="1">
          <mxGeometry x="30" width="150" height="30" as="geometry">
            <mxRectangle width="150" height="30" as="alternateBounds" />
          </mxGeometry>
        </mxCell>
        <mxCell id="qr4j-jbYs4nuFdvLoDsC-5" value="" style="shape=tableRow;horizontal=0;startSize=0;swimlaneHead=0;swimlaneBody=0;fillColor=none;collapsible=0;dropTarget=0;points=[[0,0.5],[1,0.5]];portConstraint=eastwest;top=0;left=0;right=0;bottom=0;" parent="qr4j-jbYs4nuFdvLoDsC-1" vertex="1">
          <mxGeometry y="90" width="180" height="30" as="geometry" />
        </mxCell>
        <mxCell id="qr4j-jbYs4nuFdvLoDsC-6" value="" style="shape=partialRectangle;connectable=0;fillColor=none;top=0;left=0;bottom=0;right=0;editable=1;overflow=hidden;whiteSpace=wrap;html=1;" parent="qr4j-jbYs4nuFdvLoDsC-5" vertex="1">
          <mxGeometry width="30" height="30" as="geometry">
            <mxRectangle width="30" height="30" as="alternateBounds" />
          </mxGeometry>
        </mxCell>
        <mxCell id="qr4j-jbYs4nuFdvLoDsC-7" value="horaInicio" style="shape=partialRectangle;connectable=0;fillColor=none;top=0;left=0;bottom=0;right=0;align=left;spacingLeft=6;overflow=hidden;whiteSpace=wrap;html=1;" parent="qr4j-jbYs4nuFdvLoDsC-5" vertex="1">
          <mxGeometry x="30" width="150" height="30" as="geometry">
            <mxRectangle width="150" height="30" as="alternateBounds" />
          </mxGeometry>
        </mxCell>
        <mxCell id="qr4j-jbYs4nuFdvLoDsC-8" value="" style="shape=tableRow;horizontal=0;startSize=0;swimlaneHead=0;swimlaneBody=0;fillColor=none;collapsible=0;dropTarget=0;points=[[0,0.5],[1,0.5]];portConstraint=eastwest;top=0;left=0;right=0;bottom=0;" parent="qr4j-jbYs4nuFdvLoDsC-1" vertex="1">
          <mxGeometry y="120" width="180" height="30" as="geometry" />
        </mxCell>
        <mxCell id="qr4j-jbYs4nuFdvLoDsC-9" value="" style="shape=partialRectangle;connectable=0;fillColor=none;top=0;left=0;bottom=0;right=0;editable=1;overflow=hidden;whiteSpace=wrap;html=1;" parent="qr4j-jbYs4nuFdvLoDsC-8" vertex="1">
          <mxGeometry width="30" height="30" as="geometry">
            <mxRectangle width="30" height="30" as="alternateBounds" />
          </mxGeometry>
        </mxCell>
        <mxCell id="qr4j-jbYs4nuFdvLoDsC-10" value="horaFin" style="shape=partialRectangle;connectable=0;fillColor=none;top=0;left=0;bottom=0;right=0;align=left;spacingLeft=6;overflow=hidden;whiteSpace=wrap;html=1;" parent="qr4j-jbYs4nuFdvLoDsC-8" vertex="1">
          <mxGeometry x="30" width="150" height="30" as="geometry">
            <mxRectangle width="150" height="30" as="alternateBounds" />
          </mxGeometry>
        </mxCell>
        <mxCell id="MCKHkdZ45Ho1QGfljf_c-36" value="Convocatoria" style="shape=table;startSize=30;container=1;collapsible=1;childLayout=tableLayout;fixedRows=1;rowLines=0;fontStyle=1;align=center;resizeLast=1;html=1;whiteSpace=wrap;strokeWidth=2;strokeColor=#D6B656;fillColor=#FFF2CC;" parent="1" vertex="1">
          <mxGeometry x="504" y="610" width="180" height="120" as="geometry" />
        </mxCell>
        <mxCell id="MCKHkdZ45Ho1QGfljf_c-40" value="" style="shape=tableRow;horizontal=0;startSize=0;swimlaneHead=0;swimlaneBody=0;fillColor=none;collapsible=0;dropTarget=0;points=[[0,0.5],[1,0.5]];portConstraint=eastwest;top=0;left=0;right=0;bottom=1;html=1;" parent="MCKHkdZ45Ho1QGfljf_c-36" vertex="1">
          <mxGeometry y="30" width="180" height="30" as="geometry" />
        </mxCell>
        <mxCell id="MCKHkdZ45Ho1QGfljf_c-41" value="PK,FK" style="shape=partialRectangle;connectable=0;fillColor=none;top=0;left=0;bottom=0;right=0;fontStyle=1;overflow=hidden;html=1;whiteSpace=wrap;" parent="MCKHkdZ45Ho1QGfljf_c-40" vertex="1">
          <mxGeometry width="60" height="30" as="geometry">
            <mxRectangle width="60" height="30" as="alternateBounds" />
          </mxGeometry>
        </mxCell>
        <mxCell id="MCKHkdZ45Ho1QGfljf_c-42" value="idReserva" style="shape=partialRectangle;connectable=0;fillColor=none;top=0;left=0;bottom=0;right=0;align=left;spacingLeft=6;fontStyle=5;overflow=hidden;html=1;whiteSpace=wrap;" parent="MCKHkdZ45Ho1QGfljf_c-40" vertex="1">
          <mxGeometry x="60" width="120" height="30" as="geometry">
            <mxRectangle width="120" height="30" as="alternateBounds" />
          </mxGeometry>
        </mxCell>
        <mxCell id="MCKHkdZ45Ho1QGfljf_c-43" value="" style="shape=tableRow;horizontal=0;startSize=0;swimlaneHead=0;swimlaneBody=0;fillColor=none;collapsible=0;dropTarget=0;points=[[0,0.5],[1,0.5]];portConstraint=eastwest;top=0;left=0;right=0;bottom=0;html=1;" parent="MCKHkdZ45Ho1QGfljf_c-36" vertex="1">
          <mxGeometry y="60" width="180" height="30" as="geometry" />
        </mxCell>
        <mxCell id="MCKHkdZ45Ho1QGfljf_c-44" value="" style="shape=partialRectangle;connectable=0;fillColor=none;top=0;left=0;bottom=0;right=0;editable=1;overflow=hidden;html=1;whiteSpace=wrap;" parent="MCKHkdZ45Ho1QGfljf_c-43" vertex="1">
          <mxGeometry width="60" height="30" as="geometry">
            <mxRectangle width="60" height="30" as="alternateBounds" />
          </mxGeometry>
        </mxCell>
        <mxCell id="MCKHkdZ45Ho1QGfljf_c-45" value="enlace" style="shape=partialRectangle;connectable=0;fillColor=none;top=0;left=0;bottom=0;right=0;align=left;spacingLeft=6;overflow=hidden;html=1;whiteSpace=wrap;" parent="MCKHkdZ45Ho1QGfljf_c-43" vertex="1">
          <mxGeometry x="60" width="120" height="30" as="geometry">
            <mxRectangle width="120" height="30" as="alternateBounds" />
          </mxGeometry>
        </mxCell>
        <mxCell id="MCKHkdZ45Ho1QGfljf_c-46" value="" style="shape=tableRow;horizontal=0;startSize=0;swimlaneHead=0;swimlaneBody=0;fillColor=none;collapsible=0;dropTarget=0;points=[[0,0.5],[1,0.5]];portConstraint=eastwest;top=0;left=0;right=0;bottom=0;html=1;" parent="MCKHkdZ45Ho1QGfljf_c-36" vertex="1">
          <mxGeometry y="90" width="180" height="30" as="geometry" />
        </mxCell>
        <mxCell id="MCKHkdZ45Ho1QGfljf_c-47" value="" style="shape=partialRectangle;connectable=0;fillColor=none;top=0;left=0;bottom=0;right=0;editable=1;overflow=hidden;html=1;whiteSpace=wrap;" parent="MCKHkdZ45Ho1QGfljf_c-46" vertex="1">
          <mxGeometry width="60" height="30" as="geometry">
            <mxRectangle width="60" height="30" as="alternateBounds" />
          </mxGeometry>
        </mxCell>
        <mxCell id="MCKHkdZ45Ho1QGfljf_c-48" value="observaciones" style="shape=partialRectangle;connectable=0;fillColor=none;top=0;left=0;bottom=0;right=0;align=left;spacingLeft=6;overflow=hidden;html=1;whiteSpace=wrap;" parent="MCKHkdZ45Ho1QGfljf_c-46" vertex="1">
          <mxGeometry x="60" width="120" height="30" as="geometry">
            <mxRectangle width="120" height="30" as="alternateBounds" />
          </mxGeometry>
        </mxCell>
        <mxCell id="MCKHkdZ45Ho1QGfljf_c-49" value="Convocado" style="shape=table;startSize=30;container=1;collapsible=1;childLayout=tableLayout;fixedRows=1;rowLines=0;fontStyle=1;align=center;resizeLast=1;html=1;whiteSpace=wrap;strokeColor=#D6B656;strokeWidth=2;fillColor=#FFF2CC;" parent="1" vertex="1">
          <mxGeometry x="124" y="610" width="180" height="120" as="geometry" />
        </mxCell>
        <mxCell id="MCKHkdZ45Ho1QGfljf_c-50" value="" style="shape=tableRow;horizontal=0;startSize=0;swimlaneHead=0;swimlaneBody=0;fillColor=none;collapsible=0;dropTarget=0;points=[[0,0.5],[1,0.5]];portConstraint=eastwest;top=0;left=0;right=0;bottom=0;html=1;" parent="MCKHkdZ45Ho1QGfljf_c-49" vertex="1">
          <mxGeometry y="30" width="180" height="30" as="geometry" />
        </mxCell>
        <mxCell id="MCKHkdZ45Ho1QGfljf_c-51" value="PK,FK1" style="shape=partialRectangle;connectable=0;fillColor=none;top=0;left=0;bottom=0;right=0;fontStyle=1;overflow=hidden;html=1;whiteSpace=wrap;" parent="MCKHkdZ45Ho1QGfljf_c-50" vertex="1">
          <mxGeometry width="60" height="30" as="geometry">
            <mxRectangle width="60" height="30" as="alternateBounds" />
          </mxGeometry>
        </mxCell>
        <mxCell id="MCKHkdZ45Ho1QGfljf_c-52" value="idReserva" style="shape=partialRectangle;connectable=0;fillColor=none;top=0;left=0;bottom=0;right=0;align=left;spacingLeft=6;fontStyle=5;overflow=hidden;html=1;whiteSpace=wrap;" parent="MCKHkdZ45Ho1QGfljf_c-50" vertex="1">
          <mxGeometry x="60" width="120" height="30" as="geometry">
            <mxRectangle width="120" height="30" as="alternateBounds" />
          </mxGeometry>
        </mxCell>
        <mxCell id="MCKHkdZ45Ho1QGfljf_c-53" value="" style="shape=tableRow;horizontal=0;startSize=0;swimlaneHead=0;swimlaneBody=0;fillColor=none;collapsible=0;dropTarget=0;points=[[0,0.5],[1,0.5]];portConstraint=eastwest;top=0;left=0;right=0;bottom=1;html=1;" parent="MCKHkdZ45Ho1QGfljf_c-49" vertex="1">
          <mxGeometry y="60" width="180" height="30" as="geometry" />
        </mxCell>
        <mxCell id="MCKHkdZ45Ho1QGfljf_c-54" value="PK,FK2" style="shape=partialRectangle;connectable=0;fillColor=none;top=0;left=0;bottom=0;right=0;fontStyle=1;overflow=hidden;html=1;whiteSpace=wrap;" parent="MCKHkdZ45Ho1QGfljf_c-53" vertex="1">
          <mxGeometry width="60" height="30" as="geometry">
            <mxRectangle width="60" height="30" as="alternateBounds" />
          </mxGeometry>
        </mxCell>
        <mxCell id="MCKHkdZ45Ho1QGfljf_c-55" value="idUsuario" style="shape=partialRectangle;connectable=0;fillColor=none;top=0;left=0;bottom=0;right=0;align=left;spacingLeft=6;fontStyle=5;overflow=hidden;html=1;whiteSpace=wrap;" parent="MCKHkdZ45Ho1QGfljf_c-53" vertex="1">
          <mxGeometry x="60" width="120" height="30" as="geometry">
            <mxRectangle width="120" height="30" as="alternateBounds" />
          </mxGeometry>
        </mxCell>
        <mxCell id="MCKHkdZ45Ho1QGfljf_c-59" value="" style="shape=tableRow;horizontal=0;startSize=0;swimlaneHead=0;swimlaneBody=0;fillColor=none;collapsible=0;dropTarget=0;points=[[0,0.5],[1,0.5]];portConstraint=eastwest;top=0;left=0;right=0;bottom=0;html=1;" parent="MCKHkdZ45Ho1QGfljf_c-49" vertex="1">
          <mxGeometry y="90" width="180" height="30" as="geometry" />
        </mxCell>
        <mxCell id="MCKHkdZ45Ho1QGfljf_c-60" value="" style="shape=partialRectangle;connectable=0;fillColor=none;top=0;left=0;bottom=0;right=0;editable=1;overflow=hidden;html=1;whiteSpace=wrap;" parent="MCKHkdZ45Ho1QGfljf_c-59" vertex="1">
          <mxGeometry width="60" height="30" as="geometry">
            <mxRectangle width="60" height="30" as="alternateBounds" />
          </mxGeometry>
        </mxCell>
        <mxCell id="MCKHkdZ45Ho1QGfljf_c-61" value="" style="shape=partialRectangle;connectable=0;fillColor=none;top=0;left=0;bottom=0;right=0;align=left;spacingLeft=6;overflow=hidden;html=1;whiteSpace=wrap;" parent="MCKHkdZ45Ho1QGfljf_c-59" vertex="1">
          <mxGeometry x="60" width="120" height="30" as="geometry">
            <mxRectangle width="120" height="30" as="alternateBounds" />
          </mxGeometry>
        </mxCell>
        <mxCell id="MCKHkdZ45Ho1QGfljf_c-71" value="" style="edgeStyle=entityRelationEdgeStyle;fontSize=12;html=1;endArrow=ERoneToMany;rounded=0;entryX=1;entryY=0.5;entryDx=0;entryDy=0;exitX=0;exitY=0.5;exitDx=0;exitDy=0;startArrow=ERmandOne;startFill=0;strokeWidth=2;strokeColor=#CC6600;" parent="1" source="zAhzbYTXy8An6bl5hOJK-28" target="MCKHkdZ45Ho1QGfljf_c-11" edge="1">
          <mxGeometry width="100" height="100" relative="1" as="geometry">
            <mxPoint x="584" y="300" as="sourcePoint" />
            <mxPoint x="454" y="250" as="targetPoint" />
            <Array as="points">
              <mxPoint x="790" y="15" />
              <mxPoint x="734" />
              <mxPoint x="734" />
              <mxPoint x="534" y="260" />
              <mxPoint x="424" y="290" />
            </Array>
          </mxGeometry>
        </mxCell>
        <mxCell id="MCKHkdZ45Ho1QGfljf_c-72" value="" style="edgeStyle=orthogonalEdgeStyle;fontSize=12;html=1;endArrow=ERzeroToMany;startArrow=ERmandOne;rounded=0;exitX=1;exitY=0.5;exitDx=0;exitDy=0;entryX=1;entryY=0.5;entryDx=0;entryDy=0;startFill=0;endFill=0;strokeColor=#CC6600;strokeWidth=2;" parent="1" source="zAhzbYTXy8An6bl5hOJK-28" target="MCKHkdZ45Ho1QGfljf_c-17" edge="1">
          <mxGeometry width="100" height="100" relative="1" as="geometry">
            <mxPoint x="314" y="290" as="sourcePoint" />
            <mxPoint x="694" y="320" as="targetPoint" />
            <Array as="points">
              <mxPoint x="744" y="115" />
              <mxPoint x="744" y="355" />
            </Array>
          </mxGeometry>
        </mxCell>
        <mxCell id="MCKHkdZ45Ho1QGfljf_c-73" value="" style="edgeStyle=orthogonalEdgeStyle;fontSize=12;html=1;endArrow=ERzeroToMany;startArrow=ERmandOne;rounded=0;exitX=1;exitY=0.5;exitDx=0;exitDy=0;entryX=0;entryY=0.5;entryDx=0;entryDy=0;startFill=0;endFill=0;strokeWidth=2;strokeColor=#CC6600;" parent="1" source="zAhzbYTXy8An6bl5hOJK-2" target="MCKHkdZ45Ho1QGfljf_c-14" edge="1">
          <mxGeometry width="100" height="100" relative="1" as="geometry">
            <mxPoint x="444" y="240" as="sourcePoint" />
            <mxPoint x="444" y="545" as="targetPoint" />
            <Array as="points">
              <mxPoint x="404" y="325" />
              <mxPoint x="404" y="325" />
            </Array>
          </mxGeometry>
        </mxCell>
        <mxCell id="MCKHkdZ45Ho1QGfljf_c-74" value="" style="edgeStyle=orthogonalEdgeStyle;fontSize=12;html=1;endArrow=ERzeroToMany;startArrow=ERmandOne;rounded=0;exitX=0;exitY=0.5;exitDx=0;exitDy=0;entryX=0;entryY=0.5;entryDx=0;entryDy=0;startFill=0;endFill=0;strokeWidth=2;strokeColor=#CC6600;" parent="1" source="zAhzbYTXy8An6bl5hOJK-2" target="MCKHkdZ45Ho1QGfljf_c-53" edge="1">
          <mxGeometry width="100" height="100" relative="1" as="geometry">
            <mxPoint x="414" y="305" as="sourcePoint" />
            <mxPoint x="414" y="610" as="targetPoint" />
            <Array as="points">
              <mxPoint x="84" y="325" />
              <mxPoint x="84" y="685" />
            </Array>
          </mxGeometry>
        </mxCell>
        <mxCell id="MCKHkdZ45Ho1QGfljf_c-75" value="" style="edgeStyle=entityRelationEdgeStyle;fontSize=12;html=1;endArrow=ERzeroToMany;startArrow=ERmandOne;rounded=0;entryX=1;entryY=0.5;entryDx=0;entryDy=0;exitX=0;exitY=0.5;exitDx=0;exitDy=0;strokeWidth=2;strokeColor=#CC6600;" parent="1" source="MCKHkdZ45Ho1QGfljf_c-40" target="MCKHkdZ45Ho1QGfljf_c-50" edge="1">
          <mxGeometry width="100" height="100" relative="1" as="geometry">
            <mxPoint x="704" y="900" as="sourcePoint" />
            <mxPoint x="804" y="800" as="targetPoint" />
            <Array as="points">
              <mxPoint x="424" y="770" />
              <mxPoint x="574" y="770" />
            </Array>
          </mxGeometry>
        </mxCell>
      </root>
    </mxGraphModel>
  </diagram>
  <diagram id="aGSQT3vGjxx7JSVh4OWG" name="Capas">
    <mxGraphModel dx="1434" dy="836" grid="1" gridSize="10" guides="1" tooltips="1" connect="1" arrows="1" fold="1" page="1" pageScale="1" pageWidth="827" pageHeight="1169" math="0" shadow="0">
      <root>
        <mxCell id="0" />
        <mxCell id="1" parent="0" />
        <mxCell id="FYoKOUzskP3r9zceEf3m-1" value="" style="shape=folder;fontStyle=1;spacingTop=10;tabWidth=126;tabHeight=20;tabPosition=left;html=1;whiteSpace=wrap;fillColor=#f5f5f5;fontColor=#333333;strokeColor=#666666;" parent="1" vertex="1">
          <mxGeometry x="44" y="60" width="310" height="240" as="geometry" />
        </mxCell>
        <mxCell id="FYoKOUzskP3r9zceEf3m-3" value="&lt;p style=&quot;margin:0px;margin-top:4px;text-align:center;&quot;&gt;&lt;b&gt;UsuarioConroller&lt;/b&gt;&lt;/p&gt;&lt;hr size=&quot;1&quot;&gt;usuarioService&lt;div style=&quot;height:2px;&quot;&gt;&lt;/div&gt;&lt;hr size=&quot;1&quot;&gt;&lt;div style=&quot;height:2px;&quot;&gt;&lt;/div&gt;" style="verticalAlign=top;align=left;overflow=fill;fontSize=12;fontFamily=Helvetica;html=1;whiteSpace=wrap;fillColor=#ffe6cc;strokeColor=#d79b00;" parent="1" vertex="1">
          <mxGeometry x="74" y="120" width="140" height="85" as="geometry" />
        </mxCell>
        <mxCell id="FYoKOUzskP3r9zceEf3m-4" value="" style="shape=folder;fontStyle=1;spacingTop=10;tabWidth=116;tabHeight=20;tabPosition=left;html=1;whiteSpace=wrap;fillColor=#f5f5f5;fontColor=#333333;strokeColor=#666666;" parent="1" vertex="1">
          <mxGeometry x="474" y="60" width="310" height="240" as="geometry" />
        </mxCell>
        <mxCell id="FYoKOUzskP3r9zceEf3m-6" value="&lt;p style=&quot;margin:0px;margin-top:4px;text-align:center;&quot;&gt;&lt;i&gt;&amp;lt;&amp;lt;Interface&amp;gt;&amp;gt;&lt;/i&gt;&lt;br&gt;&lt;b&gt;UsuarioService&lt;/b&gt;&lt;/p&gt;&lt;hr size=&quot;1&quot;&gt;&lt;p style=&quot;margin:0px;margin-left:4px;&quot;&gt;+ usuarioRepo: UsuarioRepo&lt;br&gt;&lt;br&gt;&lt;/p&gt;&lt;hr size=&quot;1&quot;&gt;&lt;p style=&quot;margin:0px;margin-left:4px;&quot;&gt;+ buscarPorId(id: String): Usuario&lt;br&gt;&lt;br&gt;&lt;/p&gt;" style="verticalAlign=top;align=left;overflow=fill;fontSize=12;fontFamily=Helvetica;html=1;whiteSpace=wrap;fillColor=#e1d5e7;strokeColor=#9673a6;" parent="1" vertex="1">
          <mxGeometry x="504" y="110" width="190" height="120" as="geometry" />
        </mxCell>
        <mxCell id="FYoKOUzskP3r9zceEf3m-7" value="" style="shape=folder;fontStyle=1;spacingTop=10;tabWidth=126;tabHeight=20;tabPosition=left;html=1;whiteSpace=wrap;fillColor=#f5f5f5;fontColor=#333333;strokeColor=#666666;" parent="1" vertex="1">
          <mxGeometry x="474" y="390" width="310" height="250" as="geometry" />
        </mxCell>
        <mxCell id="FYoKOUzskP3r9zceEf3m-8" value="&lt;p style=&quot;margin:0px;margin-top:4px;text-align:center;&quot;&gt;&lt;i&gt;&amp;lt;&amp;lt;Interface&amp;gt;&amp;gt;&lt;/i&gt;&lt;br&gt;&lt;b&gt;UsuarioRepo&lt;/b&gt;&lt;/p&gt;&lt;hr size=&quot;1&quot;&gt;&lt;p style=&quot;margin:0px;margin-left:4px;&quot;&gt;&lt;br&gt;&lt;/p&gt;&lt;hr size=&quot;1&quot;&gt;&lt;p style=&quot;margin:0px;margin-left:4px;&quot;&gt;+ findById(id: String): Usuario&lt;br&gt;&lt;br&gt;&lt;/p&gt;" style="verticalAlign=top;align=left;overflow=fill;fontSize=12;fontFamily=Helvetica;html=1;whiteSpace=wrap;fillColor=#d0cee2;strokeColor=#56517e;" parent="1" vertex="1">
          <mxGeometry x="504" y="450" width="190" height="100" as="geometry" />
        </mxCell>
        <mxCell id="FYoKOUzskP3r9zceEf3m-9" value="" style="shape=folder;fontStyle=1;spacingTop=10;tabWidth=116;tabHeight=20;tabPosition=left;html=1;whiteSpace=wrap;fillColor=#f5f5f5;fontColor=#333333;strokeColor=#666666;" parent="1" vertex="1">
          <mxGeometry x="44" y="390" width="296" height="430" as="geometry" />
        </mxCell>
        <mxCell id="FYoKOUzskP3r9zceEf3m-10" value="&lt;p style=&quot;margin:0px;margin-top:4px;text-align:center;&quot;&gt;&lt;b&gt;Usuario&lt;/b&gt;&lt;/p&gt;&lt;hr size=&quot;1&quot;&gt;id: String&lt;br&gt;nombre: String&lt;br&gt;&lt;hr size=&quot;1&quot;&gt;&lt;div style=&quot;height:2px;&quot;&gt;&lt;/div&gt;&lt;div style=&quot;height:2px;&quot;&gt;Usuario (usuario: Usuario)&lt;br&gt;&lt;/div&gt;" style="verticalAlign=top;align=left;overflow=fill;fontSize=12;fontFamily=Helvetica;html=1;whiteSpace=wrap;fillColor=#d5e8d4;strokeColor=#82b366;" parent="1" vertex="1">
          <mxGeometry x="50" y="460" width="170" height="100" as="geometry" />
        </mxCell>
        <mxCell id="FYoKOUzskP3r9zceEf3m-11" value="" style="endArrow=none;endFill=0;endSize=12;html=1;rounded=0;exitX=0;exitY=0.25;exitDx=0;exitDy=0;entryX=1;entryY=0.25;entryDx=0;entryDy=0;startArrow=open;startFill=0;" parent="1" source="FYoKOUzskP3r9zceEf3m-6" target="FYoKOUzskP3r9zceEf3m-3" edge="1">
          <mxGeometry width="160" relative="1" as="geometry">
            <mxPoint x="324" y="300" as="sourcePoint" />
            <mxPoint x="484" y="300" as="targetPoint" />
          </mxGeometry>
        </mxCell>
        <mxCell id="FYoKOUzskP3r9zceEf3m-12" value="utiliza" style="edgeLabel;html=1;align=center;verticalAlign=middle;resizable=0;points=[];" parent="FYoKOUzskP3r9zceEf3m-11" vertex="1" connectable="0">
          <mxGeometry x="-0.3242" relative="1" as="geometry">
            <mxPoint x="8" as="offset" />
          </mxGeometry>
        </mxCell>
        <mxCell id="FYoKOUzskP3r9zceEf3m-13" value="" style="endArrow=none;endFill=0;endSize=12;html=1;rounded=0;exitX=0.75;exitY=0;exitDx=0;exitDy=0;entryX=0.75;entryY=1;entryDx=0;entryDy=0;startArrow=open;startFill=0;" parent="1" source="FYoKOUzskP3r9zceEf3m-8" target="FYoKOUzskP3r9zceEf3m-6" edge="1">
          <mxGeometry width="160" relative="1" as="geometry">
            <mxPoint x="514" y="150" as="sourcePoint" />
            <mxPoint x="224" y="151" as="targetPoint" />
          </mxGeometry>
        </mxCell>
        <mxCell id="FYoKOUzskP3r9zceEf3m-14" value="utiliza" style="edgeLabel;html=1;align=center;verticalAlign=middle;resizable=0;points=[];" parent="FYoKOUzskP3r9zceEf3m-13" vertex="1" connectable="0">
          <mxGeometry x="-0.3242" relative="1" as="geometry">
            <mxPoint y="-36" as="offset" />
          </mxGeometry>
        </mxCell>
        <mxCell id="FYoKOUzskP3r9zceEf3m-15" value="" style="endArrow=none;endFill=0;endSize=12;html=1;rounded=0;exitX=1.018;exitY=0.15;exitDx=0;exitDy=0;entryX=0;entryY=0.25;entryDx=0;entryDy=0;startArrow=open;startFill=0;exitPerimeter=0;" parent="1" source="FYoKOUzskP3r9zceEf3m-10" target="FYoKOUzskP3r9zceEf3m-8" edge="1">
          <mxGeometry width="160" relative="1" as="geometry">
            <mxPoint x="514" y="150" as="sourcePoint" />
            <mxPoint x="224" y="151" as="targetPoint" />
          </mxGeometry>
        </mxCell>
        <mxCell id="FYoKOUzskP3r9zceEf3m-16" value="gestiona" style="edgeLabel;html=1;align=center;verticalAlign=middle;resizable=0;points=[];" parent="FYoKOUzskP3r9zceEf3m-15" vertex="1" connectable="0">
          <mxGeometry x="-0.3242" relative="1" as="geometry">
            <mxPoint x="69" y="-2" as="offset" />
          </mxGeometry>
        </mxCell>
        <mxCell id="FYoKOUzskP3r9zceEf3m-17" value="&lt;p style=&quot;margin:0px;margin-top:4px;text-align:center;&quot;&gt;&lt;b&gt;EntidadInfo&lt;/b&gt;&lt;/p&gt;&lt;hr size=&quot;1&quot;&gt;usuarioCreaReg: String&lt;br&gt;fechaCreaReg: LocalDateTime&lt;br&gt;(...)&lt;br&gt;&lt;hr size=&quot;1&quot;&gt;&lt;div style=&quot;height:2px;&quot;&gt;&lt;/div&gt;&lt;div style=&quot;height:2px;&quot;&gt;toString(): String&lt;br&gt;&lt;/div&gt;" style="verticalAlign=top;align=left;overflow=fill;fontSize=12;fontFamily=Helvetica;html=1;whiteSpace=wrap;fillColor=#dae8fc;strokeColor=#6c8ebf;" parent="1" vertex="1">
          <mxGeometry x="50" y="680" width="170" height="110" as="geometry" />
        </mxCell>
        <mxCell id="FYoKOUzskP3r9zceEf3m-18" value="Extends" style="endArrow=block;endSize=16;endFill=0;html=1;rounded=0;exitX=0.5;exitY=1;exitDx=0;exitDy=0;entryX=0.5;entryY=0;entryDx=0;entryDy=0;" parent="1" source="FYoKOUzskP3r9zceEf3m-10" target="FYoKOUzskP3r9zceEf3m-17" edge="1">
          <mxGeometry width="160" relative="1" as="geometry">
            <mxPoint x="324" y="700" as="sourcePoint" />
            <mxPoint x="484" y="700" as="targetPoint" />
          </mxGeometry>
        </mxCell>
        <mxCell id="FYoKOUzskP3r9zceEf3m-19" value="Capa Presentación" style="text;align=left;fontStyle=1;verticalAlign=middle;spacingLeft=3;spacingRight=3;strokeColor=none;rotatable=0;points=[[0,0.5],[1,0.5]];portConstraint=eastwest;html=1;" parent="1" vertex="1">
          <mxGeometry x="44" y="60" width="220" height="26" as="geometry" />
        </mxCell>
        <mxCell id="FYoKOUzskP3r9zceEf3m-20" value="Capa Servicio" style="text;align=left;fontStyle=1;verticalAlign=middle;spacingLeft=3;spacingRight=3;strokeColor=none;rotatable=0;points=[[0,0.5],[1,0.5]];portConstraint=eastwest;html=1;" parent="1" vertex="1">
          <mxGeometry x="474" y="60" width="220" height="26" as="geometry" />
        </mxCell>
        <mxCell id="FYoKOUzskP3r9zceEf3m-21" value="Capa Persistencia" style="text;align=left;fontStyle=1;verticalAlign=middle;spacingLeft=3;spacingRight=3;strokeColor=none;rotatable=0;points=[[0,0.5],[1,0.5]];portConstraint=eastwest;html=1;" parent="1" vertex="1">
          <mxGeometry x="44" y="390" width="220" height="26" as="geometry" />
        </mxCell>
        <mxCell id="FYoKOUzskP3r9zceEf3m-22" value="Capa Acceso Datos" style="text;align=left;fontStyle=1;verticalAlign=middle;spacingLeft=3;spacingRight=3;strokeColor=none;rotatable=0;points=[[0,0.5],[1,0.5]];portConstraint=eastwest;html=1;" parent="1" vertex="1">
          <mxGeometry x="474" y="390" width="220" height="26" as="geometry" />
        </mxCell>
        <mxCell id="FYoKOUzskP3r9zceEf3m-23" value="" style="endArrow=none;endFill=0;endSize=12;html=1;rounded=0;exitX=0.75;exitY=0;exitDx=0;exitDy=0;entryX=0.75;entryY=1;entryDx=0;entryDy=0;startArrow=open;startFill=0;" parent="1" source="FYoKOUzskP3r9zceEf3m-10" target="FYoKOUzskP3r9zceEf3m-3" edge="1">
          <mxGeometry width="160" relative="1" as="geometry">
            <mxPoint x="657" y="460" as="sourcePoint" />
            <mxPoint x="657" y="240" as="targetPoint" />
          </mxGeometry>
        </mxCell>
        <mxCell id="FYoKOUzskP3r9zceEf3m-24" value="utiliza" style="edgeLabel;html=1;align=center;verticalAlign=middle;resizable=0;points=[];" parent="FYoKOUzskP3r9zceEf3m-23" vertex="1" connectable="0">
          <mxGeometry x="-0.3242" relative="1" as="geometry">
            <mxPoint y="-36" as="offset" />
          </mxGeometry>
        </mxCell>
      </root>
    </mxGraphModel>
  </diagram>
</mxfile>
